<?xml version="1.0" encoding="utf-8"?>
<!-- Generator: Adobe Illustrator 26.0.2, SVG Export Plug-In . SVG Version: 6.00 Build 0)  -->
<svg version="1.1" xmlns="http://www.w3.org/2000/svg" xmlns:xlink="http://www.w3.org/1999/xlink" x="0px" y="0px"
	 viewBox="0 0 352 125" style="enable-background:new 0 0 352 125;" xml:space="preserve">
<style type="text/css">
	.st0{display:none;}
	.st1{display:inline;}
	.st2{fill:#231815;}
	.st3{fill:#FFFFFF;}
</style>
<g id="レイヤー_2" class="st0">
	<g id="レイヤー_1_00000050665236312385249190000010417430363699469989_" class="st1">
		<g>
			<g>
				<path class="st2" d="M0.3,43.3c1.4,0,2.6,0,3.6,0s1.9-0.1,2.6-0.2C7.3,43,8,42.9,8.7,42.9c0.6-0.1,1.4-0.2,2.5-0.5
					c0.9-0.2,2.1-0.5,3.6-0.9c1.5-0.3,3.3-0.8,5.5-1.5c-0.6,0.3-1.1,0.9-1.5,1.8c-0.4,0.9-0.8,1.9-1,2.9c-0.3,1.2-0.6,2.5-0.8,4
					c-0.1,1.3-0.3,3-0.5,5.3c-0.2,2.2-0.3,4.7-0.4,7.2c-0.1,2.6,0,5.2,0.1,7.8c0.1,2.6,0.4,5,0.9,7.2c0.5,2.1,1.1,3.9,2,5.2
					c0.9,1.3,2,1.9,3.5,1.8c2.2-0.1,4-0.4,5.4-0.7c1.4-0.4,2.6-0.8,3.5-1.2c0.9-0.4,1.5-0.9,2-1.4c0.4-0.5,0.8-1,1-1.4
					c0.6-1.2,1.2-2.6,1.7-4.4s1-3.5,1.4-5.1s0.7-3,1-4.1s0.4-1.7,0.4-1.6c0,0.1,0.1,0.6,0.2,1.6c0.1,0.9,0.2,2.1,0.4,3.4
					s0.3,2.7,0.5,4.1s0.3,2.7,0.4,3.7c0.1,0.8,0.2,1.8,0.2,2.8c0.1,0.9,0.2,1.9,0.3,3.1c0.2,1.2,0.3,2.5,0.4,4
					c-2,0.1-3.8,0.3-5.6,0.5s-3.3,0.4-4.6,0.6c-1.6,0.2-3,0.4-4.3,0.7c-1.4,0.2-3.1,0.6-4.9,0.9c-1.6,0.3-3.6,0.7-6,1.2
					c-2.4,0.4-5.1,1-8.2,1.6c0.3-0.7,0.5-1.3,0.7-1.9s0.3-1.1,0.4-1.5c0.1-0.5,0.2-0.9,0.2-1.2c0.1-1.5,0-3.4-0.1-5.7
					c-0.1-2.3-0.3-4.8-0.6-7.3c-0.2-2.6-0.6-5.2-0.9-7.9c-0.4-2.7-0.7-5.2-1.1-7.5C6,56,5.6,54,5.3,52.3c-0.4-1.7-0.7-2.8-0.9-3.5
					c-0.3-0.7-0.7-1.4-1.1-2.1c-0.4-0.6-0.8-1.2-1.3-1.8C1.4,44.3,0.9,43.8,0.3,43.3z"/>
				<path class="st2" d="M47.8,64.2c0.2-0.3,0.4-0.8,0.5-1.6s0.3-1.6,0.6-2.6s0.8-2,1.6-3.1c0.7-1.1,2-2.1,3.6-3s3.2-1.5,4.7-1.7
					s3-0.1,4.4,0.2s2.7,0.8,3.9,1.5c1.2,0.7,2.4,1.5,3.4,2.3c0.7,0.6,1.3,1.4,1.7,2.4c0.4,1,0.7,2.2,1,3.5c0.2,1.3,0.4,2.7,0.5,4.1
					s0.2,2.8,0.2,4.1c0.1,1.3,0.1,2.5,0.1,3.6s0.1,2,0.2,2.7c0.2,1,0.5,1.9,1,2.6s1,1.3,1.5,1.8c0.6,0.5,1.1,0.9,1.7,1.2
					c0.6,0.3,1.1,0.5,1.5,0.6c0.3,0.1,0.5,0.2,0.8,0.3c0.5,0.2,0.8,0.2,1,0c-0.3,0.7-0.5,1.2-0.8,1.7c-0.2,0.5-0.4,0.9-0.6,1.2
					c-0.2,0.4-0.3,0.7-0.5,0.9c-0.1,0.3-0.3,0.5-0.5,0.8c-0.1,0.2-0.3,0.5-0.6,0.8c-0.2,0.3-0.5,0.6-0.7,0.9
					c-0.6-0.2-1.2-0.5-1.7-0.8s-1-0.6-1.4-0.9c-0.5-0.3-1-0.7-1.4-1s-0.8-0.7-1.2-1.1c-0.3-0.4-0.7-0.8-1-1.2
					C71,84,70.7,83.5,70.4,83c-0.3,0.6-0.9,1.5-2,2.6s-2.4,2.1-4.1,3c-1.7,0.9-3.6,1.6-5.8,1.9c-2.2,0.4-4.6,0.1-7.3-0.8
					c-1.2-0.4-2.3-0.9-3.3-1.6s-1.9-1.6-2.6-2.6c-0.7-1-1.2-2.2-1.5-3.5s-0.3-2.8,0-4.4s0.9-3,1.7-4.1s1.8-2,3-2.7s2.5-1.2,3.9-1.6
					s2.9-0.6,4.5-0.8c1.2-0.1,2.4,0,3.6,0.2c1,0.2,2.1,0.5,3.2,1s2.1,1.2,2.9,2.2c-0.1-2.5-0.1-4.4-0.2-5.9s-0.2-2.6-0.3-3.4
					c-0.2-0.9-0.3-1.6-0.5-2c-0.2-0.3-0.5-0.7-0.7-1.1c-0.3-0.4-0.6-0.8-0.9-1.2c-0.4-0.3-0.8-0.6-1.4-0.9c-0.6-0.2-1.2-0.3-2-0.3
					s-1.4,0.3-1.9,0.6c-0.5,0.4-0.8,0.8-1.1,1.3s-0.4,1-0.5,1.6c0,0.6,0,1,0.1,1.5c0.1,0.3,0.2,0.6,0.4,0.9c0.2,0.3,0.4,0.6,0.8,0.9
					c0.3,0.3,0.8,0.6,1.3,0.8c-1.1,0.1-2,0.2-2.9,0.3s-1.6,0.2-2.2,0.2c-0.7,0.1-1.3,0.2-1.8,0.2c-0.5,0.1-1.1,0.1-1.8,0.3
					c-0.6,0.1-1.3,0.2-2.2,0.3s-1.9,0.3-3.1,0.6c0.3-0.3,0.5-0.6,0.8-0.9c0.2-0.3,0.4-0.6,0.6-0.8C47.4,64.7,47.6,64.5,47.8,64.2z
					 M58.3,72.6c-0.8,0.1-1.7,0.2-2.5,0.6s-1.6,0.8-2.2,1.5c-0.7,0.6-1.2,1.3-1.6,2.2c-0.4,0.8-0.7,1.7-0.7,2.7s0.2,1.8,0.7,2.6
					c0.5,0.7,1.1,1.3,2,1.8s1.7,0.7,2.7,0.8c1,0.1,1.9,0,2.8-0.3c0.9-0.3,1.7-0.8,2.5-1.6c0.8-0.7,1.5-1.5,2-2.4s1-1.7,1.2-2.6
					s0.2-1.6,0.1-2.1c-0.4-1.2-1.2-2.1-2.5-2.6C61.4,72.7,59.9,72.4,58.3,72.6z"/>
				<path class="st2" d="M89.1,40c1.3,0.4,2.5,0.6,3.5,0.8s1.9,0.3,2.6,0.5c0.8,0.1,1.5,0.2,2.2,0.3c0.6,0.1,1.5,0.1,2.6,0.1
					c0.9,0,2.2,0,3.7,0s3.4,0,5.7-0.2c-0.7,0.1-1.3,0.6-1.9,1.4c-0.6,0.8-1.2,1.7-1.7,2.6c-0.6,1.1-1.2,2.3-1.7,3.7
					c-0.4,1.2-1,2.9-1.7,5s-1.4,4.4-2.1,7c-0.7,2.5-1.3,5.1-1.8,7.6c-0.5,2.6-0.8,5-0.8,7.2c-0.1,2.2,0.2,4,0.8,5.5
					c0.6,1.5,1.6,2.3,3,2.6c2.2,0.4,4,0.6,5.4,0.6c1.5,0,2.7-0.2,3.7-0.4c1-0.2,1.7-0.6,2.3-0.9s1-0.8,1.3-1.2
					c0.8-1,1.7-2.3,2.7-3.9c0.9-1.6,1.8-3.1,2.6-4.6c0.8-1.5,1.4-2.7,1.9-3.7s0.8-1.5,0.8-1.5c0,0.1-0.1,0.6-0.2,1.6
					s-0.2,2.1-0.4,3.4c-0.2,1.3-0.3,2.7-0.5,4.1s-0.3,2.7-0.5,3.7c-0.1,0.8-0.3,1.8-0.4,2.8c-0.1,0.9-0.3,1.9-0.4,3.1
					s-0.3,2.5-0.6,3.9c-1.9-0.3-3.8-0.6-5.5-0.8c-1.8-0.2-3.3-0.4-4.6-0.5c-1.6-0.2-3-0.3-4.4-0.3c-1.4-0.1-3.1-0.2-5-0.3
					c-1.6-0.1-3.7-0.2-6.1-0.3c-2.4-0.1-5.2-0.2-8.4-0.3c0.4-0.6,0.8-1.2,1.1-1.7s0.6-1,0.7-1.3c0.2-0.4,0.4-0.8,0.5-1.2
					c0.4-1.4,0.8-3.3,1.2-5.6c0.4-2.3,0.8-4.7,1.2-7.3s0.7-5.2,1-7.9c0.3-2.7,0.5-5.2,0.7-7.5s0.3-4.3,0.3-6.1
					c0.1-1.7,0-2.9-0.1-3.6c-0.2-0.8-0.4-1.5-0.6-2.3c-0.2-0.7-0.5-1.4-0.8-2.1C89.9,41.2,89.5,40.6,89.1,40z"/>
				<path class="st2" d="M127.6,63.9c0.2-0.3,0.4-0.8,0.5-1.6s0.2-1.6,0.6-2.6c0.3-1,0.8-2,1.6-3.1c0.7-1.1,1.9-2.1,3.6-3
					c1.6-0.9,3.2-1.5,4.7-1.7s3-0.1,4.4,0.2s2.7,0.8,3.9,1.5s2.4,1.5,3.4,2.3c0.7,0.6,1.3,1.4,1.7,2.4s0.7,2.2,1,3.5
					c0.2,1.3,0.4,2.7,0.5,4.1s0.2,2.8,0.2,4.1c0.1,1.3,0.1,2.5,0.1,3.6s0.1,2,0.2,2.7c0.2,1,0.5,1.9,1,2.6s1,1.3,1.5,1.8
					c0.6,0.5,1.1,0.9,1.7,1.2c0.6,0.3,1.1,0.5,1.5,0.6c0.3,0.1,0.5,0.2,0.8,0.3c0.5,0.2,0.8,0.2,1,0c-0.3,0.7-0.5,1.2-0.8,1.7
					c-0.2,0.5-0.4,0.9-0.6,1.2c-0.2,0.4-0.4,0.7-0.5,0.9c-0.1,0.3-0.3,0.5-0.5,0.8c-0.1,0.2-0.3,0.5-0.6,0.8s-0.5,0.6-0.7,0.9
					c-0.6-0.2-1.2-0.5-1.7-0.8s-1-0.6-1.4-0.9c-0.5-0.3-1-0.7-1.4-1s-0.8-0.7-1.2-1.1c-0.3-0.4-0.7-0.8-1-1.2
					c-0.4-0.4-0.6-0.9-0.9-1.4c-0.3,0.6-0.9,1.5-2,2.6s-2.4,2.1-4.1,3c-1.7,0.9-3.6,1.6-5.8,1.9c-2.2,0.4-4.6,0.1-7.3-0.8
					c-1.2-0.4-2.3-0.9-3.3-1.6s-1.9-1.6-2.6-2.6s-1.2-2.2-1.5-3.5s-0.3-2.8,0-4.4s0.9-3,1.7-4.1c0.8-1.1,1.8-2,3-2.7
					c1.2-0.7,2.5-1.2,3.9-1.6s2.9-0.6,4.5-0.8c1.2-0.1,2.4,0,3.6,0.2c1,0.2,2.1,0.5,3.2,1c1.1,0.5,2.1,1.2,2.9,2.2
					c-0.1-2.5-0.1-4.4-0.2-5.9c-0.1-1.5-0.2-2.6-0.3-3.4c-0.2-0.9-0.4-1.6-0.5-2c-0.2-0.3-0.5-0.7-0.7-1.1c-0.3-0.4-0.6-0.8-0.9-1.2
					c-0.4-0.3-0.8-0.6-1.4-0.9c-0.6-0.2-1.2-0.3-1.9-0.3c-0.8,0-1.4,0.3-1.9,0.6c-0.5,0.4-0.8,0.8-1.1,1.3s-0.4,1-0.4,1.6
					c-0.1,0.6,0,1,0.1,1.5c0.1,0.3,0.2,0.6,0.4,0.9c0.2,0.3,0.4,0.6,0.8,0.9c0.3,0.3,0.8,0.6,1.3,0.8c-1.1,0.1-2,0.2-2.9,0.3
					s-1.6,0.2-2.2,0.2c-0.7,0.1-1.3,0.2-1.8,0.2c-0.5,0.1-1.1,0.1-1.8,0.3c-0.6,0.1-1.4,0.2-2.2,0.3c-0.9,0.1-1.9,0.3-3.1,0.6
					c0.3-0.3,0.5-0.6,0.8-0.9c0.2-0.3,0.4-0.6,0.6-0.8C127.2,64.4,127.4,64.2,127.6,63.9z M138.1,72.2c-0.8,0.1-1.7,0.2-2.5,0.6
					s-1.6,0.8-2.2,1.5c-0.6,0.6-1.2,1.3-1.6,2.2c-0.4,0.8-0.7,1.7-0.7,2.7s0.2,1.8,0.7,2.6c0.5,0.7,1.1,1.3,1.9,1.8s1.7,0.7,2.6,0.8
					c0.9,0.1,1.9,0,2.8-0.3c0.9-0.3,1.7-0.8,2.5-1.6s1.5-1.5,2-2.4s0.9-1.7,1.2-2.6c0.2-0.9,0.2-1.6,0.1-2.1
					c-0.4-1.2-1.2-2.1-2.5-2.6C141.1,72.3,139.7,72.1,138.1,72.2z"/>
				<path class="st2" d="M165.5,53.1c2.1,0.3,4,0.4,5.6,0.5s2.9,0.2,3.9,0.3c1.2,0.1,2.2,0.1,3,0c0.8,0,2-0.1,3.4-0.2
					c1.2-0.1,2.8-0.2,4.8-0.4s4.5-0.4,7.4-0.8c0,0.7,0.1,1.5,0.1,2.1c0,0.7,0,1.3,0.1,1.8c0,0.6,0.1,1.2,0.1,1.7s0,1.2-0.1,2.1
					c-0.1,0.7-0.2,1.6-0.3,2.7c-0.1,1.1-0.4,2.3-0.6,3.8c-0.4-1.7-0.9-3.1-1.3-4.2c-0.4-1.1-0.8-1.9-1.1-2.6
					c-0.4-0.7-0.8-1.3-1.1-1.7c-0.4-0.3-0.9-0.5-1.5-0.7c-0.5-0.2-1.2-0.3-1.9-0.4c-0.8-0.1-1.7-0.1-2.8,0
					c-0.2,4.2-0.3,7.7-0.3,10.3c-0.1,2.6-0.1,4.7-0.1,6.2c0,1.8-0.1,3-0.1,3.8c0,1.1,0.2,2.2,0.5,3.2c0.3,0.9,0.7,1.8,1.2,2.8
					s1.4,1.8,2.5,2.6H181c-0.6,0-1.2,0-2,0.1c-0.7,0.1-1.5,0.1-2.6,0.2c-1,0.1-2.2,0.2-3.6,0.3c0.5-0.8,0.9-1.6,1.1-2.3
					c0.3-0.7,0.5-1.2,0.7-1.7c0.2-0.6,0.3-1.1,0.4-1.5c0-0.6,0.1-1.9,0.2-3.9c0-0.8,0.1-1.8,0.1-3c0.1-1.2,0.1-2.6,0.2-4.2
					c0.1-1.6,0.2-3.5,0.2-5.7c0.1-2.1,0.2-4.5,0.3-7.2c-0.6-0.2-1.1-0.2-1.6,0s-1,0.4-1.4,0.7s-0.9,0.7-1.3,1.2
					c-0.4,0.5-0.9,1.2-1.4,2.1c-0.4,0.7-1,1.7-1.5,2.9c-0.6,1.2-1.2,2.7-2,4.5c-0.2-1.9-0.3-3.4-0.3-4.6c-0.1-1.2-0.1-2.1-0.1-2.8
					c0-0.8-0.1-1.4-0.1-1.8c0-0.3,0-0.8-0.1-1.4c-0.1-0.5-0.1-1.1-0.2-1.9C165.8,55.2,165.7,54.2,165.5,53.1z"/>
				<path class="st2" d="M193.9,53.4c1.1,0.1,2,0.2,2.8,0.3c0.8,0,1.4,0.1,1.9,0.2c0.6,0.1,1,0.1,1.4,0.1s0.9,0,1.6,0
					c0.6-0.1,1.4-0.1,2.5-0.2c1-0.1,2.4-0.2,4-0.4c-0.7,0.6-1.3,1.3-1.8,1.8s-0.8,1.1-1,1.6c-0.3,0.5-0.5,1.1-0.5,1.5
					c-0.1,0.8-0.2,1.8-0.3,3.2s-0.1,2.8-0.2,4.3c-0.1,1.6-0.1,3.2-0.1,4.9s0,3.2,0.1,4.7s0.1,2.8,0.3,4c0.1,1.2,0.3,2,0.6,2.5
					c0.3,0.6,0.7,1.2,1,1.7s0.7,1,1.1,1.5c0.4,0.5,1,0.9,1.5,1.2c-1.9-0.1-3.4-0.1-4.5-0.1h-1.7c-0.5,0-1.2,0-2,0.1
					c-0.7,0.1-1.5,0.1-2.6,0.2c-1,0.1-2.3,0.2-3.7,0.3c0.7-0.8,1.3-1.6,1.7-2.3s0.8-1.4,1-1.9c0.3-0.6,0.5-1.2,0.6-1.8
					c0.1-0.8,0.2-1.9,0.3-3.1s0.1-2.6,0.2-4s0-2.9,0-4.4S198,66.4,198,65c-0.1-1.4-0.1-2.6-0.3-3.8s-0.2-2-0.4-2.7
					c-0.1-0.4-0.3-0.9-0.6-1.4s-0.6-1-1-1.6C195.2,54.8,194.6,54.1,193.9,53.4z"/>
				<path class="st2" d="M210.5,52.1c1,0,1.9,0,2.7,0s1.4,0,1.9,0h1.4c0.4,0,0.8,0,1.3,0c0.4,0,1,0,1.6,0s1.4,0,2.2,0
					c0.3,0.9,0.6,1.8,0.9,2.6s0.6,1.6,0.9,2.3c0.3,0.8,0.6,1.5,1,2.3s0.7,1.5,1.1,2.5c0.4,0.8,0.9,1.8,1.4,3
					c0.5,1.2,1.2,2.6,1.9,4.1c0.4-1,0.7-1.9,1-2.7c0.3-0.8,0.6-1.6,0.8-2.2c0.3-0.7,0.5-1.3,0.6-1.9c0.2-0.6,0.3-1.3,0.5-2.1
					c0.2-0.7,0.3-1.5,0.6-2.5c0.2-1,0.4-2.2,0.6-3.5c0.9,0,1.8,0,2.5,0s1.4,0,1.9,0c0.6,0,1.1,0,1.6,0s1.2,0,2.1-0.1
					c0.7-0.1,1.7-0.1,3-0.2c1.2,0,2.8-0.1,4.6-0.2c-0.7,0.5-1.2,1-1.6,1.4c-0.4,0.5-0.7,0.9-0.9,1.2c-0.3,0.4-0.4,0.8-0.5,1.2
					c-0.1,0.3-0.1,1.1-0.2,2.2c-0.1,1.2-0.1,2.5-0.1,4.1c-0.1,1.6-0.1,3.3-0.1,5.1c0,1.8,0,3.5,0,5.1s0.1,3,0.2,4.2
					c0.1,1.2,0.2,1.9,0.4,2.2c0.2,0.4,0.5,0.8,0.9,1.3c0.4,0.4,0.8,1,1.4,1.5s1.3,1.2,2.2,1.9c-1.5,0.1-2.7,0.1-3.7,0.1
					s-1.8,0.1-2.4,0.1c-0.7,0-1.3,0.1-1.8,0.1s-1.1,0-2,0.1c-0.7,0-1.7,0.1-2.9,0.1c-1.2,0.1-2.8,0.1-4.7,0.2c0.4-0.5,0.9-1,1.2-1.5
					s0.7-1,1-1.4c0.3-0.5,0.6-0.9,0.8-1.4c0.2-0.6,0.4-1.7,0.5-3.3c0.1-1.4,0.2-3.4,0.3-5.9c0.1-2.6,0.1-6.1,0-10.4
					c-0.6,1-1.1,2-1.6,3s-0.9,1.9-1.2,2.7c-0.4,0.9-0.7,1.8-1.1,2.7c-0.3,0.9-0.7,1.9-1,3c-0.3,0.9-0.7,2-1.1,3.3
					c-0.4,1.3-0.9,2.7-1.5,4.2l-1.8,0.1c-0.3-1.3-0.5-2.4-0.8-3.5c-0.3-1-0.5-1.9-0.8-2.7c-0.3-0.9-0.6-1.6-0.9-2.3
					c-0.3-0.7-0.7-1.4-1.1-2.3c-0.4-0.7-0.8-1.5-1.3-2.5s-1.1-2-1.7-3.2c-0.3,3.3-0.5,5.9-0.6,8c-0.1,2-0.1,3.6,0,4.7
					c0.1,1.3,0.2,2.3,0.3,2.9c0.2,0.6,0.5,1.2,0.9,1.8c0.4,0.6,0.8,1.3,1.5,2c0.6,0.8,1.4,1.7,2.4,2.6c-0.7,0-1.4,0-2.2,0
					s-1.5,0-2.1,0.1c-0.8,0-1.5,0.1-2.3,0.1s-1.7,0.1-2.7,0.1c-0.9,0.1-2,0.1-3.2,0.2s-2.7,0.2-4.3,0.3c0.7-0.4,1.3-0.9,1.7-1.3
					s0.8-0.8,1.1-1.2c0.3-0.4,0.6-0.8,0.7-1.2c0.1-0.3,0.2-0.8,0.3-1.7c0.1-0.9,0.2-1.9,0.2-3.2s0.1-2.6,0.2-4.2s0.1-3.1,0.1-4.7
					c0.1-1.6,0.1-3.1,0.1-4.7c0-1.5,0.1-2.9,0.1-4.1c0-1.2,0-2.3,0-3.1s0-1.4,0-1.6c-0.1-0.5-0.2-1-0.4-1.4s-0.4-0.8-0.8-1.3
					C211.5,52.9,211.1,52.5,210.5,52.1z"/>
				<path class="st2" d="M248.6,53.8c2.2,0.1,4.1,0.1,5.6,0.1s2.7,0,3.6,0h2.5h14.3c0.1,0.6,0.1,1.3,0.2,1.8c0,0.6,0.1,1.1,0.1,1.6
					s0,1,0,1.5s-0.1,0.9-0.1,1.4c-0.1,0.5-0.1,0.9-0.2,1.4s-0.2,1-0.3,1.6c-0.5-1.7-1-3-1.8-3.9s-1.5-1.5-2.3-2
					c-0.9-0.5-1.8-0.7-2.8-0.8c-1.3,0.1-2.3,0.2-3.1,0.3s-1.3,0.4-1.7,0.7c-0.4,0.3-0.7,0.6-0.9,1c-0.2,0.4-0.4,0.8-0.6,1.2
					s-0.4,1-0.5,1.8c-0.2,0.7-0.3,1.6-0.5,2.7c-0.1,1.2-0.3,2.6-0.5,4.5c0.9-0.3,1.6-0.5,2.1-0.7s1-0.4,1.3-0.6
					c0.4-0.2,0.6-0.4,0.8-0.5c0.1-0.2,0.3-0.5,0.6-1.1c0.2-0.4,0.5-1.1,0.8-1.8c0.3-0.8,0.8-1.8,1.2-3.2c0.1,1.5,0.1,2.7,0.1,3.7
					s0,1.8,0,2.4c0,0.7,0,1.3,0,1.7v1.8c0,0.7,0,1.6,0,2.7s0.1,2.6,0.1,4.3c-0.4-1.2-0.7-2.1-1-2.8c-0.3-0.7-0.6-1.2-0.8-1.6
					c-0.3-0.4-0.5-0.7-0.7-0.9c-0.2-0.1-0.5-0.1-0.9-0.2c-0.4,0-0.8-0.1-1.3-0.1s-1.2,0.1-2,0.2c-0.1,1.8-0.1,3.2,0,4.2
					c0.1,1.1,0.2,1.9,0.4,2.5c0.2,0.7,0.4,1.2,0.6,1.4c0.3,0.3,0.9,0.5,1.7,0.7c0.9,0.2,1.9,0.2,3,0.2c1.1-0.1,2.2-0.2,3.4-0.6
					c1.1-0.3,2.2-0.8,3.1-1.6c0.7-0.6,1.4-1.4,2.2-2.3c0.6-0.8,1.4-1.8,2.1-3c0.8-1.2,1.6-2.7,2.3-4.4c-0.1,1.4-0.2,2.6-0.3,3.6
					c0,0.9-0.1,1.7-0.2,2.3c-0.1,0.7-0.1,1.2-0.1,1.5c0,0.4,0,0.9-0.1,1.6c-0.1,0.6-0.2,1.4-0.3,2.5c-0.1,1-0.3,2.4-0.5,4
					c-1.5,0-2.9,0.1-4.3,0.1s-2.5,0-3.6,0.1c-1.2,0-2.3,0.1-3.4,0.1s-2.2,0.1-3.5,0.1c-1.1,0.1-2.4,0.2-4,0.3
					c-1.5,0.1-3.2,0.3-5,0.5c0.2-2.2,0.3-4.2,0.4-6.2s0.1-3.7,0.2-5.1c0-1.7,0-3.3,0-4.8c0.2-3.7,0.1-6.7-0.2-8.9
					c-0.3-2.3-0.6-3.7-1-4.4c-0.2-0.2-0.5-0.5-0.8-0.8s-0.7-0.6-1.2-0.9C250,54.6,249.3,54.2,248.6,53.8z"/>
				<g>
					<path class="st2" d="M292.4,54.2c0.5,0.2,0.9,0.5,1.2,0.9s0.5,0.9,0.5,1.3c0,0.5-0.1,1-0.4,1.4c-0.3,0.5-0.7,0.9-1.3,1.2
						c-1,0.5-1.8,0.6-2.5,0.4s-1.2-0.6-1.5-1.2c-0.2-0.3-0.3-0.6-0.4-1.1s-0.1-0.9-0.1-1.4s0.1-1,0.2-1.5s0.2-0.9,0.4-1.2
						c0.2-0.2,0.4-0.5,0.6-0.7s0.4-0.5,0.7-0.7c0.3-0.2,0.6-0.4,1-0.6l1.8,0.1c-0.5,0.6-0.9,1-1.1,1.3c-0.1,0.2-0.3,0.3-0.4,0.4
						c-0.2,0.2-0.4,0.5-0.5,0.7s-0.2,0.4-0.3,0.6s-0.1,0.5,0,0.7c0.2-0.3,0.5-0.4,0.8-0.5s0.5-0.2,0.8-0.2
						C291.9,54,292.1,54.1,292.4,54.2z"/>
					<path class="st2" d="M298.5,52.5c0.6,0.5,1.2,0.8,1.9,1c0.6,0.2,1.2,0.3,1.7,0.4c0.6,0.1,1.2,0.1,1.8,0
						c0.5-0.1,1.1-0.3,1.7-0.6s1.3-0.7,2-1s1.7-0.7,2.8-1c1.1-0.3,2.3-0.4,3.8-0.4c0.6,0,1.3,0.1,2.1,0.4c0.7,0.3,1.4,0.6,2.1,1
						s1.3,0.9,1.9,1.3c0.6,0.5,1,1,1.3,1.5s0.5,1.3,0.7,2.4s0.2,2.3,0.1,3.5c0,1.3-0.1,2.5-0.3,3.8c-0.2,1.2-0.4,2.2-0.8,3
						c-0.4,0.7-1.1,1.6-2.2,2.6c-1,0.9-2.4,2.1-4.2,3.5s-4.4,3.2-7.6,5.1c1.9,0,3.5-0.1,4.8-0.2s2.3-0.2,3.1-0.3
						c1-0.1,1.7-0.3,2.2-0.4c0.5-0.2,1-0.5,1.6-0.8c0.5-0.3,1-0.8,1.5-1.3s1.1-1.2,1.6-2.1c0.1,1.8,0.2,3.2,0.3,4.2
						c0.1,0.6,0.1,1.1,0.1,1.5s0.1,0.8,0.1,1.4c0,0.5,0.1,1,0.1,1.6s0.1,1.2,0.1,1.9c-1.6-0.4-3.1-0.8-4.5-1
						c-1.3-0.2-2.5-0.4-3.4-0.5c-1.1-0.1-2.1-0.2-3-0.2s-1.9,0.1-3,0.2c-1,0.1-2.1,0.3-3.5,0.6c-1.4,0.2-2.9,0.6-4.6,1.1
						c-0.1-0.4-0.2-0.7-0.3-1.1c-0.1-0.4-0.2-0.7-0.2-1.1c-0.1-0.4-0.2-0.8-0.2-1.2c-0.1-0.4-0.1-0.8-0.2-1.1
						c-0.1-0.3-0.1-0.7-0.1-1c0-0.4-0.1-0.7-0.1-1c2.6-1.7,4.7-3.2,6.4-4.5c1.6-1.3,2.9-2.5,3.9-3.4c1.1-1.1,1.9-2.1,2.5-3
						c0.5-1.1,1-2.3,1.4-3.7c0.4-1.3,0.5-2.6,0.4-3.7c-0.1-1.1-0.5-2.1-1.2-2.8s-1.8-1-3.3-1c-1,0.1-1.9,0.4-2.8,1s-1.7,1.4-2.4,2.2
						c-0.7,0.9-1.4,1.8-1.9,2.8s-1,1.9-1.4,2.8c-0.4,0.9-0.7,1.6-0.9,2.2s-0.3,0.9-0.3,0.9c0,0.1-0.1-0.2-0.1-0.7s-0.1-1.2-0.1-2.1
						s-0.1-1.7-0.2-2.6c-0.1-0.9-0.1-1.7-0.2-2.3c0-0.5-0.1-1.1-0.1-1.9C299,57.3,298.8,55.3,298.5,52.5z"/>
					<path class="st2" d="M325.4,52.5c0.6,0.5,1.2,0.8,1.9,1c0.6,0.2,1.2,0.3,1.7,0.4c0.6,0.1,1.2,0.1,1.8,0
						c0.5-0.1,1.1-0.3,1.7-0.6s1.3-0.7,2-1s1.7-0.7,2.8-1c1.1-0.3,2.3-0.4,3.8-0.4c0.6,0,1.3,0.1,2.1,0.4c0.7,0.3,1.4,0.6,2.1,1
						s1.3,0.9,1.9,1.3c0.6,0.5,1,1,1.3,1.5s0.5,1.3,0.7,2.4s0.2,2.3,0.1,3.5c0,1.3-0.1,2.5-0.3,3.8c-0.2,1.2-0.4,2.2-0.8,3
						c-0.4,0.7-1.1,1.6-2.2,2.6c-1,0.9-2.4,2.1-4.2,3.5s-4.4,3.2-7.6,5.1c1.9,0,3.5-0.1,4.8-0.2s2.3-0.2,3.1-0.3
						c1-0.1,1.7-0.3,2.2-0.4c0.5-0.2,1-0.5,1.6-0.8c0.5-0.3,1-0.8,1.5-1.3s1.1-1.2,1.6-2.1c0.1,1.8,0.2,3.2,0.3,4.2
						c0.1,0.6,0.1,1.1,0.1,1.5s0.1,0.8,0.1,1.4c0,0.5,0.1,1,0.1,1.6s0.1,1.2,0.1,1.9c-1.6-0.4-3.1-0.8-4.5-1
						c-1.3-0.2-2.5-0.4-3.4-0.5c-1.1-0.1-2.1-0.2-3-0.2s-1.9,0.1-3,0.2c-1,0.1-2.1,0.3-3.5,0.6c-1.4,0.2-2.9,0.6-4.6,1.1
						c-0.1-0.4-0.2-0.7-0.3-1.1c-0.1-0.4-0.2-0.7-0.2-1.1c-0.1-0.4-0.2-0.8-0.2-1.2c-0.1-0.4-0.1-0.8-0.2-1.1
						c-0.1-0.3-0.1-0.7-0.1-1c0-0.4-0.1-0.7-0.1-1c2.6-1.7,4.7-3.2,6.4-4.5c1.6-1.3,2.9-2.5,3.9-3.4c1.1-1.1,1.9-2.1,2.5-3
						c0.5-1.1,1-2.3,1.4-3.7c0.4-1.3,0.5-2.6,0.4-3.7c-0.1-1.1-0.5-2.1-1.2-2.8s-1.8-1-3.3-1c-1,0.1-1.9,0.4-2.8,1s-1.7,1.4-2.4,2.2
						c-0.7,0.9-1.4,1.8-1.9,2.8s-1,1.9-1.4,2.8c-0.4,0.9-0.7,1.6-0.9,2.2S327,68,327,68c0,0.1-0.1-0.2-0.1-0.7s-0.1-1.2-0.1-2.1
						s-0.1-1.7-0.2-2.6c-0.1-0.9-0.1-1.7-0.2-2.3c0-0.5-0.1-1.1-0.1-1.9C325.9,57.3,325.7,55.3,325.4,52.5z"/>
				</g>
			</g>
			<g>
				<path class="st2" d="M84.5,109.1c0.7,0,1.3,0,1.9,0s1.1,0,1.5,0c0.5,0,0.9,0,1.3,0s1,0,1.6-0.1c0.6,0,1.3,0,2.1-0.1
					c0.8,0,1.9-0.1,3.1-0.1l-0.1,2.7c-1-0.1-1.8-0.1-2.5-0.1s-1.2-0.1-1.6-0.1c-0.5,0-0.9,0-1.2,0s-0.7,0-1.3,0.1
					c-0.5,0-1.1,0.1-1.9,0.1s-1.8,0.1-3,0.2L84.5,109.1z"/>
				<path class="st2" d="M97.6,100.2c0.3,0.2,0.7,0.4,1,0.5s0.7,0.2,0.9,0.2c0.3,0.1,0.6,0.1,0.9,0c0.3,0,0.6-0.1,0.9-0.3
					c0.3-0.2,0.7-0.4,1.1-0.6s0.9-0.4,1.5-0.5s1.3-0.2,2.1-0.2c0.3,0,0.7,0.1,1.1,0.2s0.8,0.3,1.2,0.5s0.7,0.5,1,0.7
					c0.3,0.3,0.5,0.5,0.7,0.8s0.3,0.7,0.4,1.3s0.1,1.2,0.1,1.9c0,0.7-0.1,1.4-0.2,2s-0.2,1.2-0.4,1.6c-0.2,0.4-0.6,0.8-1.2,1.4
					c-0.5,0.5-1.3,1.1-2.3,1.9s-2.4,1.7-4.1,2.8c1,0,1.9-0.1,2.6-0.1s1.3-0.1,1.7-0.1c0.5-0.1,0.9-0.1,1.2-0.2
					c0.3-0.1,0.5-0.2,0.8-0.4c0.2-0.2,0.5-0.4,0.8-0.7s0.6-0.7,0.9-1.1c0.1,0.9,0.1,1.7,0.2,2.2c0,0.3,0.1,0.6,0.1,0.8
					c0,0.2,0,0.5,0.1,0.7c0,0.2,0,0.5,0,0.8s0,0.7,0.1,1c-0.9-0.2-1.7-0.4-2.4-0.5s-1.3-0.2-1.8-0.3c-0.6-0.1-1.1-0.1-1.6-0.1
					s-1,0.1-1.6,0.1c-0.5,0.1-1.2,0.2-1.9,0.3c-0.7,0.1-1.6,0.3-2.5,0.6c-0.1-0.2-0.1-0.4-0.2-0.6s-0.1-0.4-0.1-0.6
					c-0.1-0.2-0.1-0.4-0.1-0.6s-0.1-0.4-0.1-0.6s-0.1-0.4-0.1-0.6s0-0.4-0.1-0.6c1.4-0.9,2.5-1.7,3.4-2.4s1.6-1.3,2.1-1.9
					c0.6-0.6,1-1.1,1.3-1.6c0.3-0.6,0.5-1.2,0.7-2c0.2-0.7,0.3-1.4,0.2-2c-0.1-0.6-0.3-1.1-0.7-1.5c-0.4-0.4-1-0.6-1.8-0.5
					c-0.5,0-1,0.2-1.5,0.6s-0.9,0.7-1.3,1.2s-0.7,1-1,1.5s-0.6,1-0.8,1.5s-0.4,0.9-0.5,1.2c-0.1,0.3-0.2,0.5-0.2,0.5s0-0.1-0.1-0.4
					s-0.1-0.7-0.1-1.1s-0.1-0.9-0.1-1.4s-0.1-0.9-0.1-1.2c0-0.3,0-0.6-0.1-1C97.8,102.7,97.7,101.7,97.6,100.2z"/>
				<path class="st2" d="M119.9,99.5c0.8,0,1.6,0.2,2.4,0.6s1.6,1,2.2,1.8s1.2,1.8,1.6,2.9s0.6,2.6,0.7,4.1c0,1.1-0.1,2-0.2,2.9
					s-0.4,1.6-0.7,2.3c-0.3,0.7-0.6,1.3-1,1.8s-0.8,1-1.2,1.3s-0.8,0.7-1.1,0.9c-0.3,0.2-0.7,0.3-0.9,0.4c-0.3,0.1-0.7,0.2-1.1,0.3
					c-0.4,0.1-0.9,0.1-1.4,0.2c-0.5,0-0.9,0-1.4-0.1s-0.9-0.2-1.2-0.4s-0.8-0.5-1.2-0.9c-0.5-0.4-0.9-0.9-1.3-1.6s-0.8-1.6-1.1-2.6
					s-0.4-2.3-0.4-3.9c0-1.5,0.2-2.9,0.5-4.1s0.9-2.2,1.5-3.1c0.6-0.8,1.4-1.5,2.3-1.9C117.8,99.7,118.8,99.5,119.9,99.5z
					 M116.2,109.3c0,1,0,1.9,0.2,2.7s0.3,1.4,0.5,1.9s0.4,0.9,0.6,1.2s0.4,0.5,0.5,0.7s0.3,0.3,0.6,0.3c0.3,0.1,0.6,0.1,0.9,0.1
					s0.6-0.1,0.9-0.1c0.3-0.1,0.5-0.2,0.7-0.3c0.1-0.1,0.2-0.3,0.4-0.7c0.2-0.3,0.3-0.8,0.5-1.4s0.3-1.2,0.5-2
					c0.1-0.8,0.2-1.6,0.3-2.4c0.1-1,0.1-1.9,0-2.7c-0.1-0.8-0.1-1.5-0.2-2.2c-0.1-0.6-0.2-1.1-0.4-1.5c-0.1-0.4-0.3-0.7-0.4-0.8
					c-0.2-0.2-0.5-0.4-0.8-0.4c-0.3-0.1-0.7-0.1-1-0.1s-0.6,0.1-0.9,0.2s-0.5,0.2-0.7,0.4c-0.3,0.3-0.6,0.7-0.8,1.1
					c-0.2,0.4-0.4,0.8-0.6,1.4c-0.2,0.5-0.3,1.2-0.4,1.9C116.2,107.4,116.2,108.2,116.2,109.3z"/>
				<path class="st2" d="M128.5,100.2c0.3,0.2,0.7,0.4,1,0.5s0.6,0.2,0.9,0.2c0.3,0.1,0.6,0.1,0.9,0c0.3,0,0.6-0.1,0.9-0.3
					c0.3-0.2,0.7-0.4,1.1-0.6c0.4-0.2,0.9-0.4,1.5-0.5s1.3-0.2,2.1-0.2c0.4,0,0.7,0.1,1.1,0.2s0.8,0.3,1.1,0.5s0.7,0.5,1,0.7
					c0.3,0.3,0.5,0.5,0.7,0.8s0.3,0.7,0.4,1.3c0.1,0.6,0.1,1.2,0.1,1.9c0,0.7-0.1,1.4-0.2,2c-0.1,0.7-0.2,1.2-0.4,1.6
					s-0.6,0.8-1.2,1.4c-0.5,0.5-1.3,1.1-2.3,1.9s-2.4,1.7-4.1,2.8c1,0,1.9-0.1,2.6-0.1c0.7,0,1.3-0.1,1.7-0.1
					c0.5-0.1,0.9-0.1,1.2-0.2s0.5-0.2,0.8-0.4c0.2-0.2,0.5-0.4,0.8-0.7c0.3-0.3,0.6-0.7,0.9-1.1c0.1,0.9,0.1,1.7,0.2,2.2
					c0,0.3,0.1,0.6,0.1,0.8c0,0.2,0,0.5,0.1,0.7c0,0.2,0,0.5,0,0.8s0,0.7,0.1,1c-0.9-0.2-1.7-0.4-2.4-0.5s-1.3-0.2-1.8-0.3
					c-0.6-0.1-1.1-0.1-1.6-0.1s-1,0.1-1.6,0.1c-0.5,0.1-1.1,0.2-1.9,0.3c-0.7,0.1-1.6,0.3-2.5,0.6c-0.1-0.2-0.1-0.4-0.2-0.6
					c-0.1-0.2-0.1-0.4-0.1-0.6c-0.1-0.2-0.1-0.4-0.1-0.6s-0.1-0.4-0.1-0.6s-0.1-0.4-0.1-0.6s0-0.4-0.1-0.6c1.4-0.9,2.5-1.7,3.4-2.4
					s1.6-1.3,2.1-1.9c0.6-0.6,1-1.1,1.3-1.6c0.3-0.6,0.5-1.2,0.7-2c0.2-0.7,0.3-1.4,0.2-2s-0.3-1.1-0.6-1.5c-0.4-0.4-1-0.6-1.8-0.5
					c-0.5,0-1,0.2-1.5,0.6s-0.9,0.7-1.3,1.2s-0.7,1-1,1.5s-0.6,1-0.8,1.5s-0.4,0.9-0.5,1.2c-0.1,0.3-0.2,0.5-0.2,0.5s0-0.1-0.1-0.4
					c0-0.3-0.1-0.7-0.1-1.1s-0.1-0.9-0.1-1.4s-0.1-0.9-0.1-1.2c0-0.3,0-0.6-0.1-1C128.8,102.7,128.7,101.7,128.5,100.2z"/>
				<path class="st2" d="M144,100.2c0.3,0.2,0.7,0.4,1,0.5s0.6,0.2,0.9,0.2c0.3,0.1,0.6,0.1,0.9,0c0.3,0,0.6-0.1,0.9-0.3
					c0.3-0.2,0.7-0.4,1.1-0.6c0.4-0.2,0.9-0.4,1.5-0.5s1.3-0.2,2.1-0.2c0.4,0,0.7,0.1,1.1,0.2s0.8,0.3,1.1,0.5s0.7,0.5,1,0.7
					c0.3,0.3,0.5,0.5,0.7,0.8s0.3,0.7,0.4,1.3c0.1,0.6,0.1,1.2,0.1,1.9c0,0.7-0.1,1.4-0.2,2c-0.1,0.7-0.2,1.2-0.4,1.6
					s-0.6,0.8-1.2,1.4c-0.5,0.5-1.3,1.1-2.3,1.9s-2.4,1.7-4.1,2.8c1,0,1.9-0.1,2.6-0.1c0.7,0,1.3-0.1,1.7-0.1
					c0.5-0.1,0.9-0.1,1.2-0.2s0.5-0.2,0.8-0.4c0.2-0.2,0.5-0.4,0.8-0.7c0.3-0.3,0.6-0.7,0.9-1.1c0.1,0.9,0.1,1.7,0.2,2.2
					c0,0.3,0.1,0.6,0.1,0.8c0,0.2,0,0.5,0.1,0.7c0,0.2,0,0.5,0,0.8s0,0.7,0.1,1c-0.9-0.2-1.7-0.4-2.4-0.5s-1.3-0.2-1.8-0.3
					c-0.6-0.1-1.1-0.1-1.6-0.1s-1,0.1-1.6,0.1c-0.5,0.1-1.1,0.2-1.9,0.3c-0.7,0.1-1.6,0.3-2.5,0.6c-0.1-0.2-0.1-0.4-0.2-0.6
					c-0.1-0.2-0.1-0.4-0.1-0.6c-0.1-0.2-0.1-0.4-0.1-0.6s-0.1-0.4-0.1-0.6s-0.1-0.4-0.1-0.6s0-0.4-0.1-0.6c1.4-0.9,2.5-1.7,3.4-2.4
					s1.6-1.3,2.1-1.9c0.6-0.6,1-1.1,1.3-1.6c0.3-0.6,0.5-1.2,0.7-2c0.2-0.7,0.3-1.4,0.2-2s-0.3-1.1-0.6-1.5c-0.4-0.4-1-0.6-1.8-0.5
					c-0.5,0-1,0.2-1.5,0.6s-0.9,0.7-1.3,1.2s-0.7,1-1,1.5s-0.6,1-0.8,1.5s-0.4,0.9-0.5,1.2c-0.1,0.3-0.2,0.5-0.2,0.5s0-0.1-0.1-0.4
					c0-0.3-0.1-0.7-0.1-1.1s-0.1-0.9-0.1-1.4s-0.1-0.9-0.1-1.2c0-0.3,0-0.6-0.1-1C144.3,102.7,144.2,101.7,144,100.2z"/>
				<path class="st2" d="M161.4,115.8c0.6-0.1,1.1,0,1.5,0.3s0.5,0.7,0.5,1.2c0,0.3-0.1,0.5-0.2,0.6c-0.1,0.2-0.2,0.3-0.4,0.4
					s-0.3,0.1-0.5,0.2s-0.4,0.1-0.7,0.1c-0.3,0.1-0.5,0-0.8,0c-0.2-0.1-0.5-0.2-0.7-0.4s-0.4-0.3-0.5-0.5s-0.2-0.4-0.2-0.6
					s0.1-0.4,0.2-0.5s0.3-0.3,0.4-0.4c0.2-0.1,0.4-0.2,0.6-0.3C161,115.9,161.2,115.9,161.4,115.8z"/>
				<path class="st2" d="M166,99.8c0.8,0.2,1.6,0.3,2.2,0.3s1.2,0.1,1.6,0.2c0.5,0,0.9,0,1.3,0c0.4,0,0.8,0,1.4-0.1
					c0.5,0,1.1-0.1,1.8-0.2s1.6-0.1,2.6-0.2c-0.1,0.5-0.1,0.9-0.1,1.3s-0.1,0.7-0.1,1s-0.1,0.6-0.1,0.8c0,0.3,0,0.6-0.1,0.9
					c0,0.3-0.1,0.7-0.1,1.1s-0.1,0.9-0.1,1.5c-0.7-1.1-1.3-2-1.8-2.6s-1-1.1-1.4-1.4c-0.5-0.3-0.9-0.5-1.2-0.6h-1.1
					c-0.3,0-0.7,0-1,0s-0.7,0.1-1,0.1l0.1,6.2c0.4-0.4,0.7-0.8,1.2-1s0.8-0.4,1.2-0.4c0.5-0.1,0.9-0.1,1.4-0.1
					c1.2,0.1,2.2,0.3,2.9,0.6c0.7,0.3,1.2,0.8,1.5,1.4c0.1,0.3,0.3,0.8,0.4,1.4s0.1,1.3,0.1,2.1c0,0.7-0.1,1.5-0.3,2.2
					s-0.5,1.3-0.9,1.7c-0.4,0.4-0.8,0.8-1.2,1c-0.4,0.3-0.8,0.5-1.2,0.7s-0.8,0.3-1.3,0.4c-0.4,0.1-0.9,0.1-1.4,0.2
					c-0.8,0.1-1.5,0-2.3-0.3s-1.4-0.5-1.9-0.9s-1-0.8-1.3-1.2c-0.3-0.4-0.5-0.9-0.6-1.2c0-0.3-0.1-0.6-0.1-0.8c0-0.2,0-0.5,0-0.8
					s0.1-0.5,0.2-0.7l6.8,0.5c-0.7,0.2-1.2,0.4-1.5,0.7s-0.6,0.5-0.7,0.7c-0.2,0.2-0.2,0.5-0.2,0.7c0.1,0.6,0.3,1.2,0.7,1.5
					c0.3,0.4,0.7,0.6,1.1,0.5c0.2,0,0.4-0.2,0.7-0.4s0.5-0.6,0.8-1c0.2-0.4,0.5-0.8,0.7-1.3s0.3-1,0.4-1.5s0.1-1,0.1-1.6
					s0-1-0.1-1.5s-0.2-0.8-0.4-1.2c-0.2-0.3-0.4-0.5-0.8-0.5c-0.3,0-0.6,0.2-0.9,0.3c-0.3,0.2-0.6,0.4-1.1,0.8
					c-0.4,0.3-0.9,0.9-1.4,1.5c-0.4-0.1-0.6-0.2-0.9-0.3c-0.2-0.1-0.4-0.2-0.6-0.2c-0.2-0.1-0.3-0.2-0.4-0.2
					c-0.1-0.1-0.2-0.2-0.4-0.3c-0.1-0.1-0.3-0.2-0.5-0.3c-0.2-0.1-0.5-0.3-0.8-0.5c0.1-0.7,0.1-1.3,0.1-1.7c0-0.5,0-0.9,0.1-1.2V105
					c0-0.2,0-0.6,0-1.1c0-0.4,0-1,0-1.7C165.9,101.8,166,100.9,166,99.8z"/>
				<path class="st2" d="M181.4,115.8c0.6-0.1,1.1,0,1.5,0.3s0.5,0.7,0.5,1.2c0,0.3-0.1,0.5-0.2,0.6c-0.1,0.2-0.2,0.3-0.4,0.4
					s-0.3,0.1-0.5,0.2s-0.4,0.1-0.7,0.1c-0.3,0.1-0.5,0-0.8,0c-0.2-0.1-0.5-0.2-0.7-0.4s-0.4-0.3-0.5-0.5s-0.2-0.4-0.2-0.6
					s0.1-0.4,0.2-0.5s0.3-0.3,0.4-0.4c0.2-0.1,0.4-0.2,0.6-0.3C181,115.9,181.2,115.9,181.4,115.8z"/>
				<path class="st2" d="M185.3,100.4c1.8,0,3.2,0,4.3,0s1.9,0,2.5,0c0.7,0,1.2,0,1.5-0.1l1.2-0.1c0.4,0,1-0.1,1.8-0.2
					s1.7-0.2,2.9-0.3c-1.4,2.7-2.6,4.9-3.4,6.9c-0.9,1.9-1.5,3.6-2,4.9c-0.6,1.5-0.9,2.8-1.2,3.9c0,0.3,0,0.6,0,0.9
					c0,0.2,0.1,0.5,0.2,0.8c0.1,0.3,0.3,0.6,0.6,0.8c-0.6,0-1.1,0-1.6,0c-0.4,0-0.8,0-1.1,0c-0.4,0-0.7,0-0.9,0c-0.3,0-0.6,0-1.1,0
					c-0.4,0-0.9,0.1-1.5,0.2s-1.3,0.2-2.2,0.3c0.6-0.3,1-0.6,1.4-0.9s0.7-0.5,0.9-0.7c0.3-0.2,0.5-0.4,0.6-0.6
					c0.3-0.4,0.6-0.9,0.8-1.5s0.5-1.2,0.7-1.8s0.5-1.3,0.8-2s0.6-1.4,0.9-2.2c0.2-0.6,0.5-1.2,0.8-1.9c0.3-0.6,0.6-1.2,0.9-2
					s0.7-1.6,1.1-2.4c-0.2-0.3-0.6-0.4-1.1-0.5s-1-0.1-1.5,0c-0.6,0.1-1.2,0.2-1.9,0.3c-0.3,0.1-0.6,0.3-1,0.6
					c-0.3,0.3-0.7,0.7-1.2,1.2s-1,1.3-1.5,2.2c-0.1-1.1-0.1-1.9-0.2-2.5l-0.1-0.8c0-0.2-0.1-0.4-0.1-0.7c0-0.2-0.1-0.5-0.2-0.8
					C185.5,101.2,185.4,100.8,185.3,100.4z"/>
				<path class="st2" d="M201.7,115.8c0.6-0.1,1.1,0,1.5,0.3s0.5,0.7,0.5,1.2c0,0.3-0.1,0.5-0.2,0.6c-0.1,0.2-0.2,0.3-0.4,0.4
					s-0.3,0.1-0.5,0.2s-0.4,0.1-0.7,0.1c-0.3,0.1-0.5,0-0.8,0c-0.2-0.1-0.5-0.2-0.7-0.4s-0.4-0.3-0.5-0.5s-0.2-0.4-0.2-0.6
					s0.1-0.4,0.2-0.5s0.3-0.3,0.4-0.4c0.2-0.1,0.4-0.2,0.6-0.3C201.3,115.9,201.5,115.9,201.7,115.8z"/>
				<path class="st2" d="M221.8,99.5c-0.2,0.6-0.5,1.1-0.7,1.5s-0.4,0.8-0.5,1.1c-0.2,0.3-0.3,0.6-0.4,0.9c-0.1,0.2-0.2,0.5-0.3,0.8
					s-0.3,0.7-0.5,1.2s-0.5,1.1-0.8,1.9c-0.2-0.7-0.4-1.2-0.6-1.7s-0.5-0.9-0.7-1.3c-0.3-0.4-0.5-0.7-0.8-0.9
					c-0.3-0.2-0.6-0.4-0.9-0.6c-0.6-0.3-1.3-0.5-2.1-0.6c-0.9,0.1-1.7,0.2-2.2,0.5c-0.5,0.2-0.9,0.5-1.2,0.9c-0.2,0.3-0.4,0.7-0.4,1
					s0,0.6,0.1,0.9c0.1,0.2,0.4,0.5,0.9,0.7c0.5,0.3,1.2,0.6,1.9,1c0.8,0.4,1.6,0.8,2.5,1.2s1.7,0.9,2.4,1.5
					c0.8,0.5,1.4,1.1,1.9,1.7s0.8,1.3,0.9,2c0.1,0.9,0,1.7,0,2.4c-0.1,0.7-0.3,1.3-0.7,1.8s-1.1,0.9-2,1.2c-0.9,0.3-2.1,0.5-3.7,0.6
					c-1.6,0.1-2.9,0-4-0.3c-1-0.2-1.9-0.6-2.5-1s-1.1-0.9-1.4-1.4s-0.5-1-0.7-1.5s-0.2-0.9-0.3-1.2c-0.1-0.3-0.1-0.6-0.3-0.6
					c-0.1-0.1-0.3-0.2-0.4-0.2c-0.1-0.1-0.2-0.1-0.4-0.2c-0.1-0.1-0.3-0.1-0.4-0.2l7.7-1.2c-0.4,0.3-0.8,0.7-1,1s-0.4,0.6-0.5,0.8
					c-0.1,0.3-0.2,0.5-0.3,0.7c0,0.2,0,0.6,0.2,0.9c0.2,0.4,0.5,0.7,0.8,1.1c0.3,0.3,0.7,0.6,1.2,0.9c0.5,0.2,0.9,0.3,1.4,0.3
					c0.6-0.1,1.1-0.2,1.5-0.5s0.7-0.6,0.9-1s0.3-0.8,0.4-1.3c0-0.5,0-0.9-0.1-1.4c-0.1-0.4-0.3-0.9-0.5-1.3s-0.5-0.7-0.9-1
					c-0.3-0.2-0.8-0.4-1.4-0.6c-0.6-0.2-1.3-0.4-2.1-0.6s-1.5-0.5-2.3-0.8s-1.5-0.7-2.2-1.1s-1.1-1-1.5-1.6s-0.5-1.3-0.4-2.2
					c0.1-0.7,0.3-1.3,0.7-1.8s0.9-0.9,1.5-1.2c0.6-0.3,1.3-0.5,2-0.7c0.8-0.1,1.5-0.2,2.3-0.2s1.6,0,2.3,0s1.4,0.1,2.1,0.2
					c0.6,0.1,1.1,0.1,1.6,0.2c0.4,0.1,0.7,0.1,0.8,0.1c0.5,0,0.9,0,1.4,0c0.4,0,0.9-0.1,1.3-0.2C220.9,99.9,221.4,99.8,221.8,99.5z"
					/>
				<path class="st2" d="M226,100.9c0.9,0.1,1.6,0.1,2.2,0.1c0.6,0,1.1,0.1,1.5,0.1c0.5,0,0.8,0,1.2,0s0.8-0.1,1.3-0.1
					c0.5-0.1,1.1-0.1,1.8-0.2s1.7-0.3,2.9-0.5c-0.4,0.4-0.7,0.8-0.9,1.1c-0.2,0.3-0.4,0.6-0.5,0.8c-0.1,0.3-0.2,0.5-0.3,0.7
					c0,0.2,0,0.6,0.1,1.3c0.1,0.7,0.2,1.5,0.4,2.5s0.4,2,0.6,3.1c0.2,1.1,0.5,2.1,0.7,3s0.4,1.7,0.6,2.4c0.2,0.7,0.3,1.1,0.4,1.2
					c0.3,0.4,0.4,0.6,0.5,0.7s0.2,0.2,0.4,0.3c0.1,0,0.2,0.1,0.3,0.2s0.3,0.2,0.6,0.3c0.2,0.1,0.5,0.2,0.9,0.4
					c-0.7,0-1.3,0.1-1.8,0.1s-0.9,0-1.2,0c-0.4,0-0.7,0-0.9,0.1c-0.3,0-0.6,0-0.9,0.1c-0.3,0-0.7,0.1-1.2,0.1s-1.1,0.1-1.8,0.1
					c0.4-0.2,0.6-0.5,0.9-0.7s0.4-0.4,0.5-0.5c0.1-0.2,0.2-0.3,0.3-0.5c0-0.2,0.1-0.4,0.1-0.7c0-0.3,0-0.7,0-1.1
					c0-0.5-0.1-1.1-0.1-1.8l-6.9,0.7c-0.2,0.3-0.3,0.6-0.4,0.8c-0.1,0.2-0.1,0.4-0.2,0.6c-0.1,0.2-0.1,0.3-0.1,0.5
					c0,0.1,0.1,0.3,0.2,0.5c0.1,0.2,0.2,0.4,0.4,0.6s0.4,0.5,0.8,0.8c-0.4,0-0.9,0-1.3,0c-0.5,0-0.9,0-1.3,0c-0.5,0-0.9,0-1.3,0.1
					c-0.4,0-0.9,0-1.5,0.1c-0.5,0-1,0.1-1.7,0.1c-0.6,0-1.3,0.1-2.1,0.2c0.5-0.2,0.8-0.4,1.2-0.7s0.6-0.4,0.8-0.6s0.5-0.4,0.6-0.6
					s0.4-0.6,0.7-1.2c0.4-0.6,0.8-1.4,1.2-2.3s1-1.8,1.5-2.8s1-1.9,1.4-2.8s0.8-1.7,1-2.3c0.3-0.7,0.4-1.1,0.4-1.3
					c0-0.2-0.1-0.5-0.3-0.8c-0.1-0.2-0.3-0.5-0.6-0.8C226.8,101.7,226.4,101.3,226,100.9z M234.1,111.3c-0.1-0.6-0.2-1.2-0.3-1.6
					s-0.2-0.8-0.2-1.1c-0.1-0.3-0.1-0.7-0.2-0.9c-0.1-0.2-0.1-0.6-0.2-0.9c-0.1-0.3-0.1-0.8-0.2-1.2s-0.2-1.1-0.4-1.8
					c-1,2-1.8,3.6-2.3,4.7s-0.9,1.9-1.2,2.4c-0.3,0.6-0.5,0.9-0.5,1.1L234.1,111.3z"/>
				<path class="st2" d="M238.8,99.5c1.2,0.1,2.2,0.2,3.1,0.3c0.9,0.1,1.6,0.1,2.1,0.2c0.6,0,1.2,0,1.6,0c0.5,0,1.1-0.1,1.9-0.1
					c0.7-0.1,1.5-0.1,2.6-0.2s2.4-0.2,4.1-0.4c0,0.4,0,0.8,0,1.2s0,0.7,0,1s0,0.6,0,0.9s0,0.7-0.1,1.1c0,0.4-0.1,0.9-0.2,1.5
					s-0.2,1.3-0.4,2.1c-0.2-0.9-0.5-1.7-0.7-2.3c-0.2-0.6-0.4-1.1-0.6-1.4c-0.2-0.4-0.4-0.7-0.6-0.9c-0.2-0.2-0.5-0.3-0.8-0.4
					s-0.6-0.2-1.1-0.2c-0.4-0.1-0.9,0-1.5,0c-0.1,2.3-0.1,4.2-0.2,5.6c0,1.4-0.1,2.6-0.1,3.4c0,1,0,1.7,0,2.1c0,0.6,0.1,1.2,0.3,1.8
					c0.1,0.5,0.4,1,0.7,1.5s0.8,1,1.4,1.4h-3.2c-0.3,0-0.7,0-1.1,0.1c-0.4,0-0.8,0.1-1.4,0.1s-1.2,0.1-2,0.2
					c0.3-0.5,0.5-0.9,0.6-1.2c0.2-0.4,0.3-0.7,0.4-0.9c0.1-0.3,0.2-0.6,0.2-0.8c0-0.3,0.1-1.1,0.1-2.1c0-0.4,0-1,0.1-1.6
					c0-0.7,0.1-1.4,0.1-2.3s0.1-1.9,0.1-3.1s0.1-2.5,0.1-4c-0.3-0.1-0.6-0.1-0.9,0c-0.3,0.1-0.5,0.2-0.7,0.4
					c-0.2,0.2-0.5,0.4-0.7,0.6c-0.2,0.3-0.5,0.7-0.8,1.2c-0.2,0.4-0.5,0.9-0.8,1.6s-0.7,1.5-1.1,2.4c-0.1-1-0.1-1.9-0.2-2.5
					c0-0.7-0.1-1.2-0.1-1.5c0-0.4,0-0.8,0-1s0-0.4-0.1-0.8c0-0.3-0.1-0.6-0.1-1C238.9,100.7,238.9,100.1,238.8,99.5z"/>
				<path class="st2" d="M253.9,109.1c0.7,0,1.3,0,1.9,0c0.6,0,1.1,0,1.5,0c0.5,0,0.9,0,1.3,0s1,0,1.6-0.1c0.6,0,1.3,0,2.1-0.1
					c0.9,0,1.9-0.1,3.1-0.1l-0.1,2.7c-1-0.1-1.8-0.1-2.5-0.1s-1.2-0.1-1.6-0.1c-0.5,0-0.9,0-1.2,0c-0.3,0-0.7,0-1.3,0.1
					c-0.5,0-1.1,0.1-1.9,0.1c-0.8,0-1.8,0.1-3,0.2L253.9,109.1z"/>
			</g>
		</g>
	</g>
</g>
<g id="レイヤー_1">
	<g id="レイヤー_3">
	</g>
	<g id="レイヤー_2_00000121252015334277037420000011995396073642569123_">
	</g>
	<g>
		<g>
			<path class="st3" d="M139.4,52.2c2.1,0.3,4,0.4,5.6,0.6c1.6,0.1,2.9,0.2,3.9,0.3c1.2,0.1,2.2,0.1,3,0c0.8,0,2-0.1,3.4-0.2
				c1.2-0.1,2.8-0.2,4.8-0.4c2-0.2,4.5-0.4,7.5-0.7c0,0.7,0.1,1.5,0.1,2.1c0,0.7,0,1.3,0.1,1.8c0,0.6,0,1.2,0,1.7
				c0,0.5,0,1.2-0.1,2.1c-0.1,0.7-0.2,1.6-0.3,2.7c-0.1,1.1-0.4,2.3-0.6,3.8c-0.4-1.7-0.9-3.1-1.3-4.2c-0.4-1.1-0.8-1.9-1.2-2.6
				c-0.4-0.7-0.8-1.3-1.2-1.7c-0.4-0.3-0.9-0.5-1.5-0.7c-0.5-0.2-1.2-0.3-1.9-0.4c-0.8-0.1-1.7-0.1-2.8,0c-0.2,4.2-0.3,7.7-0.3,10.3
				c-0.1,2.6-0.1,4.7-0.1,6.2c0,1.8,0,3,0,3.8c0,1.1,0.2,2.2,0.5,3.2c0.3,0.9,0.7,1.8,1.2,2.8c0.6,1,1.4,1.8,2.5,2.5h-5.9
				c-0.5,0-1.2,0-2,0.1c-0.7,0.1-1.5,0.1-2.6,0.2c-1,0.1-2.3,0.2-3.6,0.3c0.5-0.8,0.9-1.6,1.2-2.3c0.3-0.7,0.5-1.2,0.7-1.7
				c0.2-0.6,0.3-1.1,0.4-1.5c0-0.6,0.1-1.9,0.2-3.9c0-0.8,0.1-1.8,0.1-3c0-1.2,0.1-2.6,0.2-4.2c0.1-1.6,0.2-3.5,0.2-5.6
				c0.1-2.1,0.2-4.5,0.3-7.2c-0.6-0.2-1.1-0.2-1.6,0c-0.5,0.2-1,0.4-1.3,0.6c-0.4,0.3-0.9,0.7-1.3,1.2c-0.4,0.5-0.9,1.2-1.4,2.1
				c-0.4,0.7-1,1.7-1.5,2.9c-0.6,1.2-1.2,2.7-2,4.4c-0.2-1.9-0.3-3.4-0.3-4.6c-0.1-1.2-0.1-2.1-0.1-2.8c0-0.8,0-1.4,0-1.8
				c0-0.4,0-0.8-0.1-1.4c-0.1-0.5-0.1-1.1-0.2-1.9C139.7,54.3,139.6,53.3,139.4,52.2z"/>
			<path class="st3" d="M167.8,52.5c1.1,0.1,2,0.2,2.8,0.3c0.8,0,1.4,0.1,1.9,0.2c0.6,0.1,1,0.1,1.3,0.1c0.4,0,0.9,0,1.6,0
				c0.6-0.1,1.4-0.1,2.5-0.2c1-0.1,2.4-0.2,4-0.4c-0.7,0.6-1.3,1.3-1.8,1.9c-0.4,0.6-0.8,1.1-1,1.6c-0.3,0.5-0.5,1.1-0.5,1.5
				c-0.1,0.8-0.2,1.8-0.3,3.1c-0.1,1.3-0.2,2.8-0.2,4.4c-0.1,1.6-0.1,3.2-0.1,4.9c0,1.7,0,3.2,0.1,4.7c0,1.5,0.1,2.8,0.3,4
				c0.1,1.2,0.3,2,0.6,2.5c0.3,0.6,0.7,1.2,1,1.7c0.3,0.5,0.7,1,1.2,1.5c0.4,0.5,1,0.9,1.5,1.2c-1.9-0.1-3.4-0.1-4.5-0.1h-1.7
				c-0.5,0-1.2,0-2,0.1c-0.7,0.1-1.5,0.1-2.5,0.2c-1,0.1-2.3,0.2-3.7,0.3c0.7-0.8,1.3-1.6,1.7-2.3c0.4-0.7,0.8-1.4,1-1.9
				c0.3-0.6,0.5-1.2,0.6-1.8c0.1-0.8,0.2-1.9,0.3-3.1c0.1-1.2,0.1-2.6,0.2-4c0-1.4,0-2.9,0-4.4c0-1.5-0.1-2.9-0.1-4.3
				c-0.1-1.4-0.2-2.6-0.3-3.7c-0.1-1.1-0.2-2-0.4-2.7c-0.1-0.4-0.3-0.9-0.6-1.4c-0.3-0.4-0.6-1-1-1.6
				C169.1,53.9,168.5,53.2,167.8,52.5z"/>
			<path class="st3" d="M184.4,51.2c1,0,1.9,0,2.7,0c0.8,0,1.4,0,1.9,0h1.4c0.4,0,0.8,0,1.3,0c0.4,0,1,0,1.6,0c0.6,0,1.4,0,2.2,0
				c0.3,0.9,0.6,1.8,0.9,2.6c0.3,0.8,0.6,1.6,0.9,2.3c0.3,0.8,0.6,1.6,1,2.3c0.3,0.7,0.7,1.6,1.2,2.5c0.4,0.8,0.8,1.9,1.4,3.1
				c0.5,1.2,1.2,2.6,1.9,4.1c0.4-1,0.7-1.9,1-2.7c0.3-0.8,0.6-1.6,0.8-2.2c0.3-0.7,0.5-1.3,0.6-1.9c0.2-0.6,0.3-1.3,0.5-2.1
				c0.2-0.7,0.3-1.6,0.6-2.5c0.2-1,0.4-2.1,0.6-3.5c0.9,0,1.8,0,2.5,0c0.7,0,1.4,0,1.9,0c0.6,0,1.2,0,1.6,0c0.5,0,1.2,0,2.1-0.1
				c0.7-0.1,1.7-0.1,3-0.2c1.2,0,2.8-0.1,4.6-0.2c-0.7,0.5-1.2,1-1.6,1.4c-0.4,0.5-0.7,0.9-0.9,1.2c-0.3,0.4-0.4,0.8-0.5,1.2
				c-0.1,0.3-0.1,1.1-0.2,2.2c0,1.2-0.1,2.5-0.1,4.1c0,1.6-0.1,3.3-0.1,5.1c0,1.8,0,3.5,0,5.1c0,1.6,0.1,3,0.2,4.2
				c0.1,1.2,0.2,1.9,0.4,2.2c0.2,0.4,0.5,0.8,0.9,1.3c0.4,0.4,0.8,1,1.4,1.5c0.6,0.6,1.3,1.2,2.2,1.9c-1.5,0.1-2.7,0.1-3.7,0.1
				c-1,0-1.8,0.1-2.4,0.1c-0.7,0-1.3,0-1.8,0c-0.5,0-1.1,0-2,0c-0.7,0-1.7,0.1-2.9,0.1c-1.2,0-2.8,0.1-4.7,0.2
				c0.4-0.5,0.9-1,1.2-1.5c0.4-0.5,0.7-1,1-1.4c0.3-0.5,0.6-0.9,0.8-1.4c0.2-0.6,0.4-1.7,0.5-3.3c0.1-1.4,0.2-3.4,0.3-5.9
				c0.1-2.6,0.1-6,0-10.4c-0.6,1-1.1,2-1.6,3c-0.5,1-0.9,1.9-1.2,2.7c-0.4,0.9-0.7,1.8-1.1,2.7c-0.3,0.9-0.7,1.9-1,3
				c-0.3,0.9-0.7,2-1.1,3.3c-0.4,1.3-0.9,2.7-1.5,4.2l-1.8,0.1c-0.3-1.3-0.5-2.4-0.8-3.5c-0.3-1-0.5-1.9-0.8-2.7
				c-0.3-0.9-0.6-1.6-0.9-2.3c-0.3-0.7-0.7-1.4-1.1-2.3c-0.4-0.7-0.8-1.5-1.3-2.5c-0.5-1-1.1-2-1.7-3.2c-0.3,3.3-0.5,5.9-0.6,8
				c-0.1,2-0.1,3.6,0,4.7c0.1,1.3,0.2,2.3,0.3,2.9c0.2,0.5,0.5,1.2,0.9,1.8c0.4,0.6,0.8,1.3,1.5,2c0.6,0.8,1.4,1.7,2.4,2.6
				c-0.7,0-1.4,0-2.2,0c-0.8,0-1.5,0-2.1,0c-0.8,0-1.5,0-2.3,0c-0.8,0-1.7,0.1-2.7,0.1c-0.9,0.1-2,0.1-3.2,0.2
				c-1.2,0.1-2.7,0.2-4.3,0.3c0.7-0.4,1.3-0.9,1.7-1.3c0.4-0.4,0.8-0.8,1.1-1.2c0.3-0.4,0.6-0.8,0.7-1.2c0.1-0.3,0.2-0.8,0.3-1.7
				c0.1-0.9,0.2-1.9,0.2-3.2c0.1-1.3,0.1-2.6,0.2-4.2c0-1.5,0.1-3.1,0.1-4.7c0-1.6,0.1-3.1,0.1-4.7c0-1.5,0.1-2.9,0.1-4.1
				c0-1.2,0-2.3,0-3.1c0-0.8,0-1.4,0-1.6c-0.1-0.5-0.2-1-0.4-1.4c-0.2-0.4-0.4-0.8-0.8-1.3C185.4,52,185,51.6,184.4,51.2z"/>
			<path class="st3" d="M222.4,52.8c2.2,0.1,4.1,0.1,5.6,0.1c1.5,0,2.7,0,3.6,0h2.5h14.3c0.1,0.6,0.1,1.3,0.2,1.9
				c0,0.6,0.1,1.1,0.1,1.6c0,0.5,0,1,0,1.5c0,0.4-0.1,0.9-0.1,1.4c-0.1,0.4-0.1,0.9-0.2,1.4c-0.1,0.5-0.2,1-0.3,1.6
				c-0.4-1.7-1.1-3-1.8-3.9c-0.8-0.9-1.5-1.6-2.3-2c-0.9-0.5-1.8-0.7-2.8-0.8c-1.3,0.1-2.3,0.2-3.1,0.3c-0.7,0.2-1.3,0.4-1.7,0.7
				c-0.4,0.3-0.7,0.6-0.9,1c-0.2,0.4-0.4,0.8-0.6,1.2c-0.2,0.4-0.4,1-0.5,1.8c-0.2,0.7-0.3,1.6-0.5,2.7c-0.1,1.2-0.3,2.6-0.5,4.5
				c0.9-0.3,1.6-0.5,2.1-0.7c0.5-0.2,1-0.4,1.3-0.6c0.4-0.2,0.6-0.4,0.8-0.5c0.1-0.2,0.3-0.5,0.6-1.1c0.2-0.4,0.5-1.1,0.8-1.8
				c0.3-0.8,0.7-1.8,1.2-3.2c0.1,1.5,0.1,2.7,0.1,3.7c0,1,0,1.8,0,2.4c0,0.7,0,1.3,0,1.7v1.8c0,0.7,0,1.6,0,2.7
				c0,1.1,0.1,2.6,0.1,4.3c-0.4-1.2-0.7-2.1-1-2.8c-0.3-0.7-0.6-1.2-0.8-1.6c-0.3-0.4-0.5-0.7-0.7-0.9c-0.2-0.1-0.5-0.1-0.9-0.2
				c-0.4,0-0.8,0-1.3,0c-0.5,0-1.2,0.1-2,0.2c-0.1,1.8-0.1,3.2,0,4.3c0.1,1.1,0.2,1.9,0.4,2.5c0.2,0.7,0.4,1.2,0.6,1.4
				c0.3,0.3,0.9,0.5,1.7,0.7c0.9,0.2,1.9,0.2,3,0.2c1.1,0,2.2-0.2,3.4-0.6c1.2-0.3,2.2-0.8,3.1-1.6c0.7-0.6,1.4-1.4,2.2-2.3
				c0.6-0.8,1.4-1.8,2.1-3c0.8-1.2,1.6-2.7,2.3-4.4c-0.1,1.4-0.2,2.6-0.3,3.6c0,0.9-0.1,1.7-0.2,2.3c-0.1,0.7-0.1,1.2-0.1,1.5
				c0,0.4,0,0.9-0.1,1.6c-0.1,0.6-0.2,1.4-0.3,2.5c-0.1,1-0.3,2.4-0.6,4c-1.5,0-2.9,0.1-4.3,0.1c-1.3,0-2.5,0-3.6,0.1
				c-1.2,0-2.3,0.1-3.4,0.1c-1.1,0-2.2,0-3.5,0.1c-1.1,0.1-2.4,0.2-4,0.3c-1.5,0.1-3.2,0.3-5,0.5c0.2-2.2,0.3-4.2,0.4-6.2
				c0.1-1.9,0.1-3.6,0.2-5.1c0-1.7,0-3.3,0-4.8c0.2-3.7,0.1-6.7-0.2-8.9c-0.3-2.3-0.6-3.7-1-4.4c-0.2-0.2-0.5-0.5-0.8-0.8
				c-0.3-0.3-0.7-0.6-1.2-0.9C223.9,53.7,223.2,53.3,222.4,52.8z"/>
			<g>
				<path class="st3" d="M275.3,53.2c0.5,0.2,0.9,0.4,1.2,0.9c0.3,0.4,0.4,0.9,0.5,1.3c0,0.5-0.1,1-0.4,1.4
					c-0.3,0.5-0.7,0.9-1.3,1.2c-0.9,0.5-1.8,0.6-2.5,0.4c-0.7-0.2-1.2-0.6-1.5-1.1c-0.2-0.3-0.3-0.6-0.4-1.1
					c-0.1-0.5-0.1-0.9-0.1-1.4c0-0.5,0.1-1,0.2-1.5c0.1-0.5,0.2-0.9,0.4-1.2c0.2-0.2,0.4-0.5,0.6-0.7c0.2-0.2,0.4-0.5,0.7-0.7
					c0.3-0.2,0.6-0.4,1-0.6l1.8,0.1c-0.5,0.6-0.9,1-1.1,1.3c-0.1,0.2-0.3,0.3-0.4,0.4c-0.2,0.2-0.4,0.5-0.5,0.7
					c-0.1,0.2-0.2,0.4-0.3,0.6c-0.1,0.2-0.1,0.5,0,0.7c0.2-0.3,0.5-0.4,0.8-0.5c0.3-0.1,0.5-0.1,0.8-0.1
					C274.7,53.1,275,53.1,275.3,53.2z"/>
				<path class="st3" d="M281.4,51.6c0.6,0.5,1.2,0.8,1.9,1c0.6,0.2,1.2,0.4,1.7,0.4c0.6,0.1,1.2,0.1,1.8,0c0.6-0.1,1.1-0.3,1.7-0.6
					c0.6-0.3,1.3-0.7,2.1-1c0.8-0.4,1.7-0.7,2.8-1c1.1-0.3,2.3-0.4,3.8-0.4c0.7,0,1.3,0.1,2.1,0.4c0.7,0.3,1.4,0.6,2.1,1
					c0.7,0.4,1.3,0.9,1.9,1.3c0.6,0.5,1,1,1.3,1.5c0.3,0.5,0.6,1.3,0.7,2.4c0.1,1.1,0.2,2.3,0.1,3.5c0,1.3-0.1,2.5-0.3,3.8
					c-0.2,1.2-0.4,2.2-0.8,3c-0.4,0.7-1.1,1.6-2.2,2.6c-0.9,0.9-2.4,2.1-4.3,3.5c-1.9,1.4-4.4,3.1-7.6,5.1c1.9,0,3.5-0.1,4.8-0.2
					c1.3-0.1,2.3-0.2,3.2-0.3c0.9-0.1,1.7-0.3,2.2-0.4c0.5-0.2,1-0.5,1.6-0.8c0.5-0.3,1-0.7,1.5-1.3c0.5-0.5,1.1-1.2,1.6-2.1
					c0.1,1.8,0.2,3.1,0.3,4.2c0.1,0.6,0.1,1.1,0.1,1.5c0,0.4,0.1,0.8,0.1,1.4c0,0.5,0.1,1,0.1,1.6c0,0.6,0.1,1.2,0.1,1.9
					c-1.6-0.4-3.1-0.8-4.5-1c-1.3-0.2-2.5-0.4-3.4-0.5c-1.1-0.1-2.1-0.2-3-0.2c-0.9,0-1.9,0.1-3,0.2c-1,0.1-2.1,0.3-3.5,0.6
					c-1.4,0.2-2.9,0.6-4.6,1.1c-0.1-0.4-0.2-0.7-0.3-1.1c-0.1-0.4-0.2-0.7-0.2-1.1c-0.1-0.4-0.2-0.8-0.2-1.2
					c-0.1-0.4-0.1-0.8-0.2-1.1c-0.1-0.3-0.1-0.7-0.1-1c0-0.4-0.1-0.7-0.1-1c2.6-1.7,4.7-3.2,6.4-4.5c1.6-1.4,2.9-2.5,3.9-3.4
					c1.1-1.1,1.9-2.1,2.4-3c0.6-1.1,1-2.3,1.4-3.7c0.4-1.3,0.5-2.6,0.4-3.7c-0.1-1.1-0.5-2.1-1.2-2.8c-0.7-0.7-1.8-1.1-3.3-1
					c-1,0.1-1.9,0.4-2.8,1c-0.9,0.6-1.7,1.4-2.4,2.2c-0.7,0.9-1.4,1.8-1.9,2.8c-0.6,1-1,1.9-1.4,2.8c-0.4,0.9-0.7,1.6-0.9,2.2
					c-0.2,0.6-0.3,0.9-0.3,0.9c0,0.1-0.1-0.2-0.1-0.7c0-0.6-0.1-1.2-0.1-2.1c0-0.8-0.1-1.7-0.2-2.6c-0.1-0.9-0.1-1.7-0.2-2.3
					c0-0.5-0.1-1.1-0.1-1.9C281.9,56.3,281.7,54.3,281.4,51.6z"/>
				<path class="st3" d="M308.3,51.6c0.6,0.5,1.2,0.8,1.9,1c0.6,0.2,1.2,0.4,1.7,0.4c0.6,0.1,1.2,0.1,1.8,0c0.6-0.1,1.1-0.3,1.7-0.6
					c0.6-0.3,1.3-0.7,2.1-1c0.8-0.4,1.7-0.7,2.8-1c1.1-0.3,2.3-0.4,3.8-0.4c0.7,0,1.3,0.1,2.1,0.4c0.7,0.3,1.4,0.6,2.1,1
					c0.7,0.4,1.3,0.9,1.9,1.3c0.6,0.5,1,1,1.3,1.5c0.3,0.5,0.6,1.3,0.7,2.4c0.1,1.1,0.2,2.3,0.1,3.5c0,1.3-0.1,2.5-0.3,3.8
					c-0.2,1.2-0.4,2.2-0.8,3c-0.4,0.7-1.1,1.6-2.2,2.6c-0.9,0.9-2.4,2.1-4.3,3.5c-1.9,1.4-4.4,3.1-7.6,5.1c1.9,0,3.5-0.1,4.8-0.2
					c1.3-0.1,2.3-0.2,3.2-0.3c0.9-0.1,1.7-0.3,2.2-0.4c0.5-0.2,1-0.5,1.6-0.8c0.5-0.3,1-0.7,1.5-1.3c0.5-0.5,1.1-1.2,1.6-2.1
					c0.1,1.8,0.2,3.1,0.3,4.2c0.1,0.6,0.1,1.1,0.1,1.5c0,0.4,0.1,0.8,0.1,1.4c0,0.5,0.1,1,0.1,1.6c0,0.6,0.1,1.2,0.1,1.9
					c-1.6-0.4-3.1-0.8-4.5-1c-1.3-0.2-2.5-0.4-3.4-0.5c-1.1-0.1-2.1-0.2-3-0.2c-0.9,0-1.9,0.1-3,0.2c-1,0.1-2.1,0.3-3.5,0.6
					c-1.4,0.2-2.9,0.6-4.6,1.1c-0.1-0.4-0.2-0.7-0.3-1.1c-0.1-0.4-0.2-0.7-0.2-1.1c-0.1-0.4-0.2-0.8-0.2-1.2
					c-0.1-0.4-0.1-0.8-0.2-1.1c-0.1-0.3-0.1-0.7-0.1-1c0-0.4-0.1-0.7-0.1-1c2.6-1.7,4.7-3.2,6.4-4.5c1.6-1.4,2.9-2.5,3.9-3.4
					c1.1-1.1,1.9-2.1,2.4-3c0.6-1.1,1-2.3,1.4-3.7c0.4-1.3,0.5-2.6,0.4-3.7c-0.1-1.1-0.5-2.1-1.2-2.8c-0.7-0.7-1.8-1.1-3.3-1
					c-1,0.1-1.9,0.4-2.8,1c-0.9,0.6-1.7,1.4-2.4,2.2c-0.7,0.9-1.4,1.8-1.9,2.8c-0.6,1-1,1.9-1.4,2.8c-0.4,0.9-0.7,1.6-0.9,2.2
					c-0.2,0.6-0.3,0.9-0.3,0.9c0,0.1-0.1-0.2-0.1-0.7c0-0.6-0.1-1.2-0.1-2.1c0-0.8-0.1-1.7-0.2-2.6c-0.1-0.9-0.1-1.7-0.2-2.3
					c0-0.5-0.1-1.1-0.1-1.9C308.8,56.3,308.6,54.3,308.3,51.6z"/>
			</g>
		</g>
		<g>
			<path class="st3" d="M84.4,109.1c0.7,0,1.3,0,1.9,0c0.6,0,1.1,0,1.5,0c0.5,0,0.9,0,1.3,0c0.4,0,1,0,1.6-0.1c0.6,0,1.3,0,2.1-0.1
				c0.9,0,1.9-0.1,3.1-0.1l-0.1,2.7c-1-0.1-1.8-0.1-2.5-0.1c-0.7,0-1.2,0-1.6-0.1c-0.5,0-0.9,0-1.2,0c-0.3,0-0.7,0-1.3,0.1
				c-0.5,0-1.1,0.1-1.9,0.1c-0.8,0-1.8,0.1-3,0.2L84.4,109.1z"/>
			<path class="st3" d="M97.5,100.2c0.3,0.2,0.7,0.4,1,0.5c0.3,0.1,0.7,0.2,0.9,0.2c0.3,0.1,0.6,0.1,0.9,0c0.3,0,0.6-0.1,0.9-0.3
				c0.3-0.2,0.7-0.4,1.1-0.6c0.4-0.2,0.9-0.4,1.5-0.5c0.6-0.1,1.3-0.2,2.1-0.2c0.4,0,0.7,0.1,1.1,0.2c0.4,0.1,0.8,0.3,1.1,0.5
				c0.4,0.2,0.7,0.5,1,0.7c0.3,0.3,0.5,0.5,0.7,0.8c0.2,0.3,0.3,0.7,0.4,1.3c0.1,0.6,0.1,1.2,0.1,1.9c0,0.7-0.1,1.4-0.2,2
				c-0.1,0.7-0.2,1.2-0.4,1.6c-0.2,0.4-0.6,0.8-1.2,1.4c-0.5,0.5-1.3,1.1-2.3,1.9c-1,0.8-2.4,1.7-4.1,2.8c1,0,1.9,0,2.6-0.1
				c0.7,0,1.3-0.1,1.7-0.1c0.5-0.1,0.9-0.1,1.2-0.2c0.3-0.1,0.5-0.3,0.8-0.4c0.2-0.2,0.5-0.4,0.8-0.7c0.3-0.3,0.6-0.6,0.9-1.1
				c0.1,0.9,0.1,1.7,0.2,2.2c0,0.3,0.1,0.6,0.1,0.8c0,0.2,0,0.5,0.1,0.7c0,0.2,0,0.5,0,0.8c0,0.3,0,0.6,0.1,1
				c-0.9-0.2-1.7-0.4-2.4-0.5c-0.7-0.1-1.3-0.2-1.8-0.3c-0.6-0.1-1.1-0.1-1.6-0.1c-0.5,0-1,0.1-1.6,0.1c-0.5,0.1-1.2,0.2-1.9,0.3
				c-0.7,0.1-1.5,0.3-2.5,0.6c-0.1-0.2-0.1-0.4-0.2-0.6c-0.1-0.2-0.1-0.4-0.1-0.6c-0.1-0.2-0.1-0.4-0.1-0.6c0-0.2-0.1-0.4-0.1-0.6
				c0-0.2-0.1-0.4-0.1-0.6c0-0.2,0-0.4-0.1-0.6c1.4-0.9,2.5-1.7,3.4-2.4c0.9-0.7,1.6-1.3,2.1-1.9c0.6-0.6,1-1.1,1.3-1.6
				c0.3-0.6,0.5-1.3,0.7-2c0.2-0.7,0.3-1.4,0.2-2c-0.1-0.6-0.3-1.1-0.6-1.5c-0.4-0.4-1-0.6-1.8-0.5c-0.5,0-1,0.2-1.5,0.6
				c-0.5,0.3-0.9,0.7-1.3,1.2c-0.4,0.5-0.7,1-1,1.5c-0.3,0.5-0.5,1-0.8,1.5c-0.2,0.5-0.4,0.9-0.5,1.2c-0.1,0.3-0.2,0.5-0.2,0.5
				c0,0,0-0.1-0.1-0.4c0-0.3-0.1-0.7-0.1-1.1c0-0.4-0.1-0.9-0.1-1.4c0-0.5-0.1-0.9-0.1-1.2c0-0.3,0-0.6-0.1-1
				C97.7,102.8,97.6,101.7,97.5,100.2z"/>
			<path class="st3" d="M119.8,99.5c0.8,0,1.6,0.2,2.4,0.6c0.8,0.4,1.6,1,2.2,1.8c0.7,0.8,1.2,1.8,1.6,2.9c0.4,1.2,0.6,2.6,0.7,4.1
				c0,1.1-0.1,2-0.2,2.9c-0.2,0.9-0.4,1.6-0.7,2.3c-0.3,0.7-0.6,1.3-1,1.8c-0.4,0.5-0.8,1-1.1,1.3c-0.4,0.4-0.8,0.6-1.1,0.9
				c-0.4,0.2-0.6,0.4-0.9,0.4c-0.3,0.1-0.7,0.2-1.1,0.3c-0.4,0.1-0.9,0.1-1.4,0.2s-0.9,0-1.4-0.1c-0.5-0.1-0.9-0.2-1.2-0.4
				c-0.4-0.2-0.8-0.5-1.2-0.9c-0.5-0.4-0.9-0.9-1.3-1.6c-0.4-0.7-0.8-1.6-1.1-2.6c-0.3-1.1-0.4-2.3-0.4-3.9c0-1.5,0.2-2.9,0.5-4.1
				c0.4-1.2,0.9-2.2,1.5-3.1c0.6-0.8,1.4-1.5,2.3-1.9C117.7,99.8,118.7,99.5,119.8,99.5z M116.1,109.3c0,1,0,1.9,0.2,2.7
				c0.1,0.8,0.3,1.4,0.5,1.9c0.2,0.5,0.4,0.9,0.6,1.3c0.2,0.3,0.4,0.5,0.5,0.6c0.1,0.2,0.3,0.3,0.6,0.3c0.3,0.1,0.6,0.1,0.9,0.1
				c0.3,0,0.6-0.1,0.9-0.1c0.3-0.1,0.5-0.2,0.7-0.3c0.1-0.1,0.2-0.3,0.4-0.7c0.2-0.4,0.3-0.8,0.5-1.4c0.2-0.6,0.3-1.2,0.5-2
				c0.1-0.7,0.2-1.5,0.3-2.4c0.1-1,0.1-1.9,0-2.7c-0.1-0.8-0.1-1.5-0.2-2.1c-0.1-0.6-0.2-1.1-0.4-1.5c-0.1-0.4-0.3-0.7-0.4-0.8
				c-0.2-0.2-0.5-0.4-0.8-0.4c-0.3-0.1-0.6-0.1-1-0.1c-0.3,0-0.6,0.1-0.9,0.2c-0.3,0.1-0.5,0.2-0.7,0.4c-0.3,0.4-0.6,0.7-0.8,1.1
				c-0.2,0.4-0.4,0.9-0.6,1.4c-0.2,0.5-0.3,1.2-0.4,1.9C116.1,107.4,116.1,108.3,116.1,109.3z"/>
			<path class="st3" d="M128.4,100.2c0.3,0.2,0.7,0.4,1,0.5c0.3,0.1,0.7,0.2,0.9,0.2c0.3,0.1,0.6,0.1,0.9,0c0.3,0,0.6-0.1,0.9-0.3
				c0.3-0.2,0.7-0.4,1.1-0.6c0.4-0.2,0.9-0.4,1.5-0.5c0.6-0.1,1.3-0.2,2.1-0.2c0.4,0,0.7,0.1,1.1,0.2c0.4,0.1,0.8,0.3,1.1,0.5
				c0.4,0.2,0.7,0.5,1,0.7c0.3,0.3,0.5,0.5,0.7,0.8c0.2,0.3,0.3,0.7,0.4,1.3c0.1,0.6,0.1,1.2,0.1,1.9c0,0.7-0.1,1.4-0.2,2
				c-0.1,0.7-0.2,1.2-0.4,1.6c-0.2,0.4-0.6,0.8-1.2,1.4c-0.5,0.5-1.3,1.1-2.3,1.9c-1,0.8-2.4,1.7-4.1,2.8c1,0,1.9,0,2.6-0.1
				c0.7,0,1.3-0.1,1.7-0.1c0.5-0.1,0.9-0.1,1.2-0.2c0.3-0.1,0.5-0.3,0.8-0.4c0.2-0.2,0.5-0.4,0.8-0.7c0.3-0.3,0.6-0.6,0.9-1.1
				c0.1,0.9,0.1,1.7,0.2,2.2c0,0.3,0.1,0.6,0.1,0.8c0,0.2,0,0.5,0.1,0.7c0,0.2,0,0.5,0,0.8c0,0.3,0,0.6,0.1,1
				c-0.9-0.2-1.7-0.4-2.4-0.5c-0.7-0.1-1.3-0.2-1.8-0.3c-0.6-0.1-1.1-0.1-1.6-0.1c-0.5,0-1,0.1-1.6,0.1c-0.5,0.1-1.2,0.2-1.9,0.3
				c-0.7,0.1-1.5,0.3-2.5,0.6c-0.1-0.2-0.1-0.4-0.2-0.6c-0.1-0.2-0.1-0.4-0.1-0.6c-0.1-0.2-0.1-0.4-0.1-0.6c0-0.2-0.1-0.4-0.1-0.6
				c0-0.2-0.1-0.4-0.1-0.6c0-0.2,0-0.4-0.1-0.6c1.4-0.9,2.5-1.7,3.4-2.4c0.9-0.7,1.6-1.3,2.1-1.9c0.6-0.6,1-1.1,1.3-1.6
				c0.3-0.6,0.5-1.3,0.7-2c0.2-0.7,0.3-1.4,0.2-2c-0.1-0.6-0.3-1.1-0.6-1.5c-0.4-0.4-1-0.6-1.8-0.5c-0.5,0-1,0.2-1.5,0.6
				c-0.5,0.3-0.9,0.7-1.3,1.2c-0.4,0.5-0.7,1-1,1.5c-0.3,0.5-0.5,1-0.8,1.5c-0.2,0.5-0.4,0.9-0.5,1.2c-0.1,0.3-0.2,0.5-0.2,0.5
				c0,0,0-0.1-0.1-0.4c0-0.3-0.1-0.7-0.1-1.1c0-0.4-0.1-0.9-0.1-1.4c0-0.5-0.1-0.9-0.1-1.2c0-0.3,0-0.6-0.1-1
				C128.7,102.8,128.5,101.7,128.4,100.2z"/>
			<path class="st3" d="M143.9,100.2c0.3,0.2,0.7,0.4,1,0.5c0.3,0.1,0.7,0.2,0.9,0.2c0.3,0.1,0.6,0.1,0.9,0c0.3,0,0.6-0.1,0.9-0.3
				c0.3-0.2,0.7-0.4,1.1-0.6c0.4-0.2,0.9-0.4,1.5-0.5c0.6-0.1,1.3-0.2,2.1-0.2c0.4,0,0.7,0.1,1.1,0.2c0.4,0.1,0.8,0.3,1.1,0.5
				c0.4,0.2,0.7,0.5,1,0.7c0.3,0.3,0.5,0.5,0.7,0.8c0.2,0.3,0.3,0.7,0.4,1.3c0.1,0.6,0.1,1.2,0.1,1.9c0,0.7-0.1,1.4-0.2,2
				c-0.1,0.7-0.2,1.2-0.4,1.6c-0.2,0.4-0.6,0.8-1.2,1.4c-0.5,0.5-1.3,1.1-2.3,1.9c-1,0.8-2.4,1.7-4.1,2.8c1,0,1.9,0,2.6-0.1
				c0.7,0,1.3-0.1,1.7-0.1c0.5-0.1,0.9-0.1,1.2-0.2c0.3-0.1,0.5-0.3,0.8-0.4c0.2-0.2,0.5-0.4,0.8-0.7c0.3-0.3,0.6-0.6,0.9-1.1
				c0.1,0.9,0.1,1.7,0.2,2.2c0,0.3,0.1,0.6,0.1,0.8c0,0.2,0,0.5,0.1,0.7c0,0.2,0,0.5,0,0.8c0,0.3,0,0.6,0.1,1
				c-0.9-0.2-1.7-0.4-2.4-0.5c-0.7-0.1-1.3-0.2-1.8-0.3c-0.6-0.1-1.1-0.1-1.6-0.1c-0.5,0-1,0.1-1.6,0.1c-0.5,0.1-1.2,0.2-1.9,0.3
				c-0.7,0.1-1.5,0.3-2.5,0.6c-0.1-0.2-0.1-0.4-0.2-0.6c-0.1-0.2-0.1-0.4-0.1-0.6c-0.1-0.2-0.1-0.4-0.1-0.6c0-0.2-0.1-0.4-0.1-0.6
				c0-0.2-0.1-0.4-0.1-0.6c0-0.2,0-0.4-0.1-0.6c1.4-0.9,2.5-1.7,3.4-2.4c0.9-0.7,1.6-1.3,2.1-1.9c0.6-0.6,1-1.1,1.3-1.6
				c0.3-0.6,0.5-1.3,0.7-2c0.2-0.7,0.3-1.4,0.2-2c-0.1-0.6-0.3-1.1-0.6-1.5c-0.4-0.4-1-0.6-1.8-0.5c-0.5,0-1,0.2-1.5,0.6
				c-0.5,0.3-0.9,0.7-1.3,1.2c-0.4,0.5-0.7,1-1,1.5c-0.3,0.5-0.5,1-0.8,1.5c-0.2,0.5-0.4,0.9-0.5,1.2c-0.1,0.3-0.2,0.5-0.2,0.5
				c0,0,0-0.1-0.1-0.4c0-0.3-0.1-0.7-0.1-1.1c0-0.4-0.1-0.9-0.1-1.4c0-0.5-0.1-0.9-0.1-1.2c0-0.3,0-0.6-0.1-1
				C144.2,102.8,144.1,101.7,143.9,100.2z"/>
			<path class="st3" d="M161.2,115.9c0.6-0.1,1.1,0,1.5,0.3c0.4,0.3,0.5,0.7,0.5,1.2c0,0.3-0.1,0.5-0.2,0.6
				c-0.1,0.2-0.2,0.3-0.4,0.4c-0.1,0.1-0.3,0.1-0.5,0.2c-0.2,0-0.4,0.1-0.7,0.1c-0.3,0.1-0.5,0-0.8,0c-0.2-0.1-0.5-0.2-0.7-0.4
				c-0.2-0.2-0.3-0.3-0.5-0.5c-0.1-0.2-0.2-0.4-0.2-0.6c0-0.2,0.1-0.4,0.2-0.5c0.1-0.1,0.3-0.3,0.4-0.4c0.2-0.1,0.4-0.2,0.6-0.3
				C160.9,116,161.1,115.9,161.2,115.9z"/>
			<path class="st3" d="M165.9,99.9c0.8,0.2,1.6,0.3,2.2,0.3c0.6,0.1,1.2,0.1,1.6,0.2c0.5,0,0.9,0,1.3,0c0.4,0,0.8,0,1.4-0.1
				c0.5,0,1.1-0.1,1.8-0.1c0.7-0.1,1.6-0.1,2.6-0.2c-0.1,0.5-0.1,0.9-0.1,1.3c0,0.4-0.1,0.7-0.1,1c0,0.3-0.1,0.6-0.1,0.8
				c0,0.3,0,0.6-0.1,0.9c0,0.3-0.1,0.7-0.1,1.1c0,0.4,0,0.9-0.1,1.5c-0.7-1.1-1.3-2-1.8-2.6c-0.5-0.6-1-1.1-1.4-1.4
				c-0.5-0.3-0.9-0.5-1.2-0.6h-1.1c-0.3,0-0.7,0-1,0c-0.4,0-0.7,0.1-1,0.1l0.1,6.2c0.4-0.4,0.7-0.8,1.2-1c0.4-0.2,0.8-0.4,1.2-0.4
				c0.5-0.1,0.9-0.1,1.4-0.1c1.2,0.1,2.2,0.3,2.9,0.6c0.7,0.3,1.2,0.8,1.5,1.4c0.1,0.3,0.3,0.8,0.4,1.4c0.1,0.6,0.1,1.3,0.1,2.1
				c0,0.7-0.1,1.5-0.3,2.2c-0.2,0.7-0.5,1.3-0.9,1.7c-0.4,0.4-0.8,0.8-1.2,1c-0.4,0.3-0.8,0.5-1.2,0.7c-0.4,0.2-0.8,0.3-1.3,0.4
				c-0.4,0.1-0.9,0.1-1.4,0.2c-0.8,0.1-1.5,0-2.3-0.3c-0.7-0.2-1.4-0.5-1.9-0.9c-0.5-0.4-1-0.8-1.3-1.3c-0.3-0.4-0.5-0.9-0.6-1.2
				c0-0.3-0.1-0.6-0.1-0.8c0-0.2,0-0.5,0-0.8c0-0.3,0.1-0.5,0.2-0.7l6.8,0.5c-0.7,0.2-1.2,0.4-1.5,0.7c-0.3,0.2-0.6,0.5-0.7,0.7
				c-0.2,0.2-0.2,0.5-0.2,0.7c0.1,0.6,0.3,1.1,0.7,1.5c0.3,0.4,0.7,0.6,1.1,0.5c0.2,0,0.5-0.2,0.7-0.4c0.3-0.3,0.5-0.6,0.8-1
				c0.3-0.4,0.5-0.8,0.7-1.3c0.2-0.5,0.3-1,0.4-1.5c0.1-0.5,0.1-1,0.1-1.6c0-0.5,0-1-0.1-1.5c-0.1-0.5-0.2-0.8-0.4-1.1
				c-0.2-0.3-0.4-0.5-0.8-0.5c-0.3,0-0.6,0.1-0.9,0.3c-0.3,0.2-0.7,0.4-1.1,0.8c-0.4,0.4-0.9,0.9-1.4,1.5c-0.4-0.1-0.6-0.2-0.9-0.3
				c-0.2-0.1-0.4-0.2-0.6-0.3c-0.2-0.1-0.3-0.1-0.4-0.2c-0.1-0.1-0.2-0.2-0.4-0.3c-0.1-0.1-0.3-0.2-0.5-0.3
				c-0.2-0.1-0.5-0.3-0.8-0.5c0.1-0.7,0.1-1.3,0.1-1.7c0-0.5,0-0.9,0.1-1.2v-0.9c0-0.2,0-0.6,0-1.1c0-0.4,0-1,0-1.7
				C165.8,101.9,165.8,101,165.9,99.9z"/>
			<path class="st3" d="M181.3,115.9c0.6-0.1,1.1,0,1.5,0.3c0.4,0.3,0.5,0.7,0.5,1.2c0,0.3-0.1,0.5-0.2,0.6
				c-0.1,0.2-0.2,0.3-0.4,0.4c-0.1,0.1-0.3,0.1-0.5,0.2c-0.2,0-0.4,0.1-0.7,0.1c-0.3,0.1-0.5,0-0.8,0c-0.2-0.1-0.5-0.2-0.7-0.4
				c-0.2-0.2-0.3-0.3-0.5-0.5c-0.1-0.2-0.2-0.4-0.2-0.6c0-0.2,0.1-0.4,0.2-0.5c0.1-0.1,0.3-0.3,0.4-0.4c0.2-0.1,0.4-0.2,0.6-0.3
				C180.9,116,181.1,115.9,181.3,115.9z"/>
			<path class="st3" d="M185.2,100.5c1.8,0,3.2,0,4.3,0c1.1,0,1.9,0,2.5,0c0.7,0,1.2,0,1.5-0.1l1.2-0.1c0.4,0,1-0.1,1.8-0.2
				c0.7-0.1,1.7-0.2,2.9-0.3c-1.4,2.7-2.6,4.9-3.4,6.9c-0.9,1.9-1.5,3.6-2,4.9c-0.6,1.5-0.9,2.8-1.2,3.9c0,0.3,0,0.6,0,0.9
				c0,0.2,0.1,0.5,0.2,0.8c0.1,0.3,0.3,0.6,0.6,0.8c-0.6,0-1.1,0-1.6,0c-0.4,0-0.8,0-1.1,0c-0.4,0-0.7,0-0.9,0c-0.3,0-0.6,0-1.1,0
				c-0.4,0-0.9,0.1-1.5,0.2c-0.6,0.1-1.3,0.2-2.2,0.3c0.6-0.3,1-0.6,1.4-0.9c0.4-0.3,0.7-0.5,0.9-0.7c0.3-0.2,0.5-0.4,0.6-0.6
				c0.3-0.4,0.6-0.9,0.8-1.5c0.3-0.6,0.5-1.2,0.7-1.8c0.2-0.6,0.5-1.3,0.8-2c0.3-0.7,0.6-1.4,0.9-2.1c0.2-0.6,0.5-1.2,0.8-1.9
				c0.3-0.6,0.6-1.2,0.9-2c0.3-0.8,0.7-1.6,1.1-2.4c-0.2-0.3-0.6-0.4-1.1-0.5c-0.5-0.1-1-0.1-1.5,0c-0.6,0.1-1.2,0.2-1.9,0.3
				c-0.3,0.1-0.6,0.3-1,0.6c-0.3,0.3-0.7,0.7-1.2,1.2c-0.5,0.5-1,1.3-1.5,2.2c-0.1-1.1-0.1-1.9-0.2-2.5l-0.1-0.8
				c0-0.2-0.1-0.4-0.1-0.7c0-0.2-0.1-0.5-0.2-0.8C185.4,101.3,185.3,100.9,185.2,100.5z"/>
			<path class="st3" d="M201.6,115.9c0.6-0.1,1.1,0,1.5,0.3c0.4,0.3,0.5,0.7,0.5,1.2c0,0.3-0.1,0.5-0.2,0.6
				c-0.1,0.2-0.2,0.3-0.4,0.4c-0.1,0.1-0.3,0.1-0.5,0.2c-0.2,0-0.4,0.1-0.7,0.1c-0.3,0.1-0.5,0-0.8,0c-0.2-0.1-0.5-0.2-0.7-0.4
				c-0.2-0.2-0.3-0.3-0.5-0.5c-0.1-0.2-0.2-0.4-0.2-0.6c0-0.2,0.1-0.4,0.2-0.5c0.1-0.1,0.3-0.3,0.4-0.4c0.2-0.1,0.4-0.2,0.6-0.3
				C201.2,116,201.4,115.9,201.6,115.9z"/>
			<path class="st3" d="M221.7,99.5c-0.2,0.6-0.5,1.1-0.7,1.5c-0.2,0.4-0.4,0.8-0.5,1.1c-0.2,0.3-0.3,0.6-0.4,0.9
				c-0.1,0.2-0.2,0.5-0.3,0.8c-0.1,0.3-0.3,0.7-0.5,1.2c-0.2,0.5-0.5,1.1-0.8,1.9c-0.2-0.6-0.4-1.2-0.6-1.7
				c-0.2-0.5-0.5-0.9-0.7-1.3c-0.3-0.4-0.5-0.7-0.8-0.9c-0.3-0.2-0.6-0.4-0.9-0.6c-0.6-0.4-1.3-0.5-2.1-0.6
				c-0.9,0.1-1.7,0.2-2.2,0.5c-0.5,0.3-0.9,0.5-1.2,0.9c-0.2,0.3-0.4,0.7-0.4,1c0,0.3,0,0.6,0.1,0.9c0.1,0.2,0.4,0.5,0.9,0.7
				c0.5,0.3,1.2,0.6,1.9,1c0.8,0.4,1.6,0.8,2.5,1.2c0.9,0.4,1.7,0.9,2.4,1.5c0.7,0.5,1.4,1.1,1.9,1.7c0.5,0.6,0.8,1.3,0.9,2
				c0.1,0.9,0,1.7,0,2.4c-0.1,0.7-0.3,1.3-0.7,1.8c-0.4,0.5-1.1,0.9-2,1.2c-0.9,0.3-2.1,0.5-3.7,0.6c-1.6,0.1-2.9,0-4-0.3
				c-1-0.2-1.9-0.6-2.5-1c-0.6-0.4-1.1-0.9-1.4-1.4c-0.3-0.5-0.5-1-0.7-1.5c-0.1-0.5-0.2-0.9-0.3-1.2c-0.1-0.3-0.1-0.5-0.3-0.6
				c-0.1-0.1-0.3-0.2-0.4-0.2c-0.1-0.1-0.3-0.1-0.4-0.2c-0.1-0.1-0.3-0.1-0.4-0.2l7.7-1.2c-0.4,0.4-0.8,0.7-1,1
				c-0.2,0.3-0.4,0.6-0.5,0.8c-0.1,0.3-0.2,0.5-0.3,0.7c0,0.2,0,0.6,0.2,0.9c0.2,0.4,0.5,0.7,0.8,1.1c0.3,0.3,0.7,0.6,1.2,0.9
				c0.5,0.2,0.9,0.3,1.4,0.3c0.6-0.1,1.1-0.2,1.5-0.5c0.4-0.3,0.7-0.6,0.9-1c0.2-0.4,0.3-0.8,0.4-1.3c0-0.5,0-0.9-0.1-1.4
				c-0.1-0.4-0.3-0.9-0.5-1.3c-0.2-0.4-0.5-0.7-0.9-1c-0.3-0.2-0.8-0.4-1.4-0.6c-0.6-0.2-1.3-0.4-2.1-0.6c-0.8-0.2-1.5-0.5-2.3-0.8
				c-0.8-0.3-1.5-0.7-2.2-1.1c-0.6-0.4-1.1-1-1.5-1.6c-0.4-0.6-0.5-1.3-0.4-2.2c0.1-0.7,0.3-1.3,0.7-1.8c0.4-0.5,0.9-0.9,1.5-1.2
				c0.6-0.3,1.3-0.5,2-0.6c0.7-0.1,1.5-0.2,2.3-0.3c0.8,0,1.6,0,2.3,0c0.8,0.1,1.5,0.1,2.1,0.2c0.6,0.1,1.1,0.1,1.6,0.2
				c0.4,0.1,0.7,0.1,0.8,0.1c0.5,0,0.9,0,1.4,0c0.4,0,0.8-0.1,1.3-0.3C220.8,100,221.3,99.8,221.7,99.5z"/>
			<path class="st3" d="M225.9,101c0.9,0.1,1.6,0.1,2.2,0.1c0.6,0,1.1,0,1.5,0.1c0.5,0,0.8,0,1.2,0c0.3,0,0.7-0.1,1.3-0.1
				c0.5-0.1,1.1-0.1,1.8-0.3c0.8-0.1,1.7-0.3,2.9-0.5c-0.4,0.4-0.7,0.8-0.9,1.1c-0.2,0.3-0.4,0.6-0.5,0.8c-0.1,0.3-0.2,0.5-0.3,0.7
				c0,0.2,0,0.6,0.1,1.3c0.1,0.7,0.3,1.5,0.4,2.5c0.2,1,0.4,2,0.6,3.1c0.2,1.1,0.5,2.1,0.7,3c0.2,0.9,0.4,1.7,0.6,2.4
				c0.2,0.7,0.3,1,0.4,1.2c0.3,0.4,0.4,0.6,0.5,0.7c0.1,0.1,0.2,0.2,0.4,0.3c0.1,0,0.2,0.1,0.3,0.2c0.1,0.1,0.3,0.2,0.6,0.3
				c0.2,0.1,0.5,0.2,0.9,0.4c-0.7,0-1.3,0.1-1.8,0.1c-0.5,0-0.9,0-1.2,0c-0.4,0-0.7,0-0.9,0.1c-0.3,0-0.6,0-0.9,0.1
				c-0.3,0-0.7,0.1-1.2,0.1c-0.5,0-1.1,0.1-1.8,0.1c0.4-0.2,0.6-0.5,0.9-0.7c0.2-0.2,0.4-0.4,0.5-0.5c0.1-0.2,0.2-0.3,0.3-0.5
				c0-0.2,0.1-0.4,0.1-0.7c0-0.3,0-0.7,0-1.1c0-0.5-0.1-1.1-0.1-1.8l-6.9,0.7c-0.2,0.3-0.3,0.6-0.4,0.8c-0.1,0.2-0.1,0.4-0.2,0.6
				c-0.1,0.2-0.1,0.4-0.1,0.5c0,0.1,0.1,0.3,0.2,0.5c0.1,0.2,0.2,0.4,0.4,0.6c0.2,0.2,0.4,0.5,0.8,0.8c-0.4,0-0.9,0-1.3,0
				c-0.5,0-0.9,0-1.3,0c-0.5,0-0.9,0-1.3,0.1c-0.4,0-0.9,0-1.5,0.1c-0.5,0-1,0.1-1.7,0.1c-0.6,0-1.3,0.1-2.1,0.2
				c0.5-0.2,0.8-0.4,1.2-0.6c0.3-0.2,0.6-0.4,0.8-0.6c0.2-0.2,0.5-0.4,0.6-0.6c0.1-0.2,0.4-0.6,0.7-1.2c0.4-0.6,0.8-1.4,1.3-2.3
				c0.5-0.9,1-1.8,1.5-2.8c0.5-1,1-1.9,1.4-2.8c0.4-0.9,0.8-1.7,1-2.3c0.3-0.6,0.4-1.1,0.4-1.3c0-0.2-0.1-0.5-0.3-0.8
				c-0.1-0.2-0.3-0.5-0.6-0.8C226.7,101.7,226.3,101.4,225.9,101z M234,111.4c-0.1-0.6-0.2-1.1-0.3-1.6c-0.1-0.4-0.2-0.8-0.2-1.1
				c-0.1-0.4-0.1-0.7-0.2-0.9c-0.1-0.2-0.1-0.6-0.2-0.9c-0.1-0.3-0.2-0.8-0.3-1.3c-0.1-0.5-0.2-1.1-0.4-1.8c-1,2-1.8,3.6-2.3,4.6
				c-0.6,1.1-1,1.9-1.2,2.4c-0.3,0.6-0.5,0.9-0.5,1.1L234,111.4z"/>
			<path class="st3" d="M238.7,99.6c1.2,0.1,2.2,0.2,3.1,0.3c0.9,0.1,1.6,0.1,2.1,0.1c0.6,0,1.2,0,1.6,0c0.5,0,1.1-0.1,1.9-0.1
				c0.7-0.1,1.5-0.1,2.6-0.2c1.1-0.1,2.4-0.2,4.1-0.4c0,0.4,0,0.8,0,1.2c0,0.4,0,0.7,0,1c0,0.3,0,0.6,0,0.9c0,0.3,0,0.7-0.1,1.1
				c0,0.4-0.1,0.9-0.2,1.5c-0.1,0.6-0.2,1.3-0.4,2.1c-0.2-0.9-0.5-1.7-0.7-2.3c-0.2-0.6-0.4-1.1-0.6-1.4c-0.2-0.4-0.4-0.7-0.6-0.9
				c-0.2-0.2-0.5-0.3-0.8-0.4c-0.3-0.1-0.6-0.2-1.1-0.2c-0.4-0.1-0.9,0-1.5,0c-0.1,2.3-0.1,4.2-0.2,5.6c0,1.4-0.1,2.6-0.1,3.4
				c0,1,0,1.7,0,2.1c0,0.6,0.1,1.2,0.3,1.8c0.1,0.5,0.4,1,0.7,1.5c0.3,0.5,0.8,1,1.4,1.4h-3.2c-0.3,0-0.7,0-1.1,0.1
				c-0.4,0-0.8,0.1-1.4,0.1c-0.6,0-1.2,0.1-2,0.2c0.3-0.5,0.5-0.9,0.6-1.2c0.2-0.4,0.3-0.7,0.4-0.9c0.1-0.3,0.2-0.6,0.2-0.8
				c0-0.4,0.1-1.1,0.1-2.1c0-0.4,0-1,0.1-1.6c0-0.6,0.1-1.4,0.1-2.3c0-0.9,0.1-1.9,0.1-3.1c0-1.2,0.1-2.5,0.1-4
				c-0.3-0.1-0.6-0.1-0.9,0c-0.3,0.1-0.5,0.2-0.7,0.4c-0.2,0.2-0.5,0.4-0.7,0.6c-0.2,0.3-0.5,0.7-0.8,1.2c-0.2,0.4-0.5,0.9-0.8,1.6
				c-0.3,0.7-0.7,1.5-1.1,2.4c-0.1-1-0.1-1.9-0.2-2.5c0-0.7-0.1-1.2-0.1-1.5c0-0.4,0-0.8,0-1c0-0.2,0-0.4-0.1-0.8
				c0-0.3-0.1-0.6-0.1-1C238.8,100.7,238.8,100.2,238.7,99.6z"/>
			<path class="st3" d="M253.8,109.1c0.7,0,1.3,0,1.9,0c0.6,0,1.1,0,1.5,0c0.5,0,0.9,0,1.3,0c0.4,0,1,0,1.6-0.1c0.6,0,1.3,0,2.1-0.1
				c0.9,0,1.9-0.1,3.1-0.1l-0.1,2.7c-1-0.1-1.8-0.1-2.5-0.1c-0.7,0-1.2,0-1.6-0.1c-0.5,0-0.9,0-1.2,0c-0.3,0-0.7,0-1.3,0.1
				c-0.5,0-1.1,0.1-1.9,0.1c-0.8,0-1.8,0.1-3,0.2L253.8,109.1z"/>
		</g>
		<g>
			<path class="st3" d="M28.9,41.1c0.7,0.2,1.2,0.6,1.6,1.2c0.4,0.6,0.6,1.2,0.6,1.9c0,0.7-0.2,1.4-0.5,2c-0.4,0.7-1,1.2-1.8,1.7
				c-1.3,0.7-2.5,0.9-3.4,0.5c-1-0.3-1.7-0.9-2.1-1.6c-0.2-0.4-0.4-0.9-0.5-1.5c-0.1-0.6-0.2-1.3-0.1-2c0-0.7,0.1-1.4,0.2-2.1
				s0.3-1.2,0.6-1.7c0.2-0.3,0.5-0.7,0.8-1c0.3-0.3,0.6-0.6,1-1c0.4-0.3,0.8-0.6,1.3-0.9l2.5,0.1c-0.7,0.8-1.2,1.4-1.6,1.8
				c-0.2,0.2-0.4,0.4-0.5,0.6c-0.3,0.3-0.5,0.6-0.7,1c-0.2,0.3-0.3,0.6-0.5,0.9c-0.1,0.3-0.2,0.6-0.1,1c0.3-0.4,0.7-0.6,1.1-0.7
				c0.4-0.1,0.7-0.2,1.1-0.2C28.2,40.9,28.6,41,28.9,41.1z"/>
			<path class="st3" d="M56.1,35.5c2.5,0.1,4.9,0.5,7.5,1.3c2.5,0.8,4.8,2.1,7,3.8c2.1,1.7,3.9,4,5.4,6.7c1.5,2.7,2.4,6.1,2.8,10
				c0.3,3.2-0.1,6.4-1.2,9.6c-1.1,3.2-2.6,6-4.6,8.7c-2,2.6-4.2,4.9-6.7,6.7c-2.5,1.8-5.1,3.1-7.6,3.6c-1.5,0.4-3.2,0.4-5.1,0.1
				c-1.8-0.3-3.7-0.9-5.6-1.7c-1.9-0.8-3.7-1.9-5.5-3.2c-1.8-1.3-3.4-2.8-4.9-4.5c-1.5-1.7-2.7-3.6-3.6-5.5c-1-2-1.6-4.1-1.8-6.3
				c-0.2-1.8-0.2-3.8,0-6c0.2-2.2,0.6-4.4,1.3-6.6c0.7-2.2,1.6-4.3,2.8-6.4c1.2-2.1,2.7-3.9,4.6-5.4c1.9-1.6,4.1-2.8,6.6-3.7
				C49.8,35.8,52.7,35.4,56.1,35.5z M43.9,63c-0.6,4.9-0.2,8.8,1.4,11.7c1.6,3,3.9,4.7,7.1,5.4c1.5,0.3,3,0,4.5-1
				c1.4-1,2.7-2.4,3.9-4.3c1.2-1.9,2.2-4,3.1-6.5c0.9-2.5,1.5-5.1,1.9-7.8c0.4-2.7,0.4-5.2,0.1-7.4c-0.3-2.2-0.9-4.1-1.7-5.7
				c-0.8-1.6-1.8-2.8-3-3.6c-1.2-0.9-2.3-1.3-3.6-1.4c-2.1-0.1-4,0.4-5.6,1.7C50.4,45.3,49,47,48,49c-1.1,2-2,4.2-2.6,6.7
				C44.7,58.2,44.2,60.6,43.9,63z"/>
			<path class="st3" d="M79.9,38.5c2,0.4,3.7,0.6,5,0.7c1.3,0.1,2.4,0.2,3.2,0.3c1,0.1,1.7,0.1,2.2,0.1h2c0.7,0,1.6,0,2.8,0
				c1.1,0,2.5,0,4.2,0c1,2.2,1.8,4.3,2.6,6.1c0.8,1.9,1.5,3.4,2,4.8c0.6,1.6,1.2,3,1.8,4.3c0.6,1.6,1.3,3.3,2,5.2
				c0.7,1.9,1.4,3.7,2,5.4c0.6,1.7,1.1,3.1,1.5,4.2c0.4,1.1,0.6,1.6,0.6,1.5c0,0,0-0.5,0.1-1.4c0-0.9,0.1-2,0.1-3.3
				c0-1.3,0.1-2.8,0.2-4.4c0.1-1.6,0.1-3.2,0.1-4.7c0-1.5,0-2.9,0-4.2c0-1.3,0-2.2-0.1-2.9c-0.1-0.8-0.4-1.7-0.8-2.7
				c-0.4-0.9-0.9-1.9-1.5-3.1c-0.6-1.2-1.5-2.6-2.7-4.1c1.9,0,3.4,0.1,4.6,0.1c1.2,0,2.1,0,2.9,0c0.8,0,1.5,0,1.9-0.1
				c0.6,0,1.3,0,2.2-0.1c0.8-0.1,1.7-0.2,2.9-0.2c1.2-0.1,2.6-0.2,4.3-0.3c-1,0.9-1.8,1.8-2.4,2.6c-0.6,0.8-1.1,1.5-1.4,2.2
				c-0.4,0.7-0.7,1.4-0.8,2c-0.2,0.8-0.3,2.1-0.4,4c-0.1,1.8-0.2,3.9-0.3,6.2c-0.1,2.3-0.2,4.6-0.3,7.1c-0.1,2.5-0.2,4.7-0.3,6.7
				c0,1.5,0,3.2-0.1,5c-0.1,1.5-0.2,3.2-0.3,5.1c-0.1,1.9-0.2,3.8-0.3,5.7l-6.1,0.1c-1.8-3.1-3.3-5.8-4.5-8.1
				c-1.2-2.2-2.2-4.1-3-5.5c-0.9-1.7-1.6-3.1-2.2-4.2c-0.5-1.1-1.2-2.3-2-3.7c-0.7-1.2-1.5-2.6-2.6-4.4c-1-1.7-2.2-3.7-3.6-5.9
				c-0.1,3.1-0.2,5.8-0.2,8c0,2.2,0.1,4,0.2,5.5c0.1,1.7,0.3,3.1,0.5,4.2c0.2,1.1,0.5,2.3,1,3.7c0.4,1.2,0.8,2.6,1.3,4.2
				c0.5,1.6,1.2,3.4,1.9,5.4c-2.7-0.1-4.7-0.2-6-0.2h-2c-0.6,0-1.5,0.1-2.6,0.2c-0.9,0.1-2.1,0.2-3.7,0.4c-1.6,0.2-3.5,0.4-5.8,0.7
				c1.1-1.3,2-2.5,2.6-3.6c0.7-1.1,1.2-2.1,1.5-2.8c0.5-0.9,0.8-1.7,1-2.4c0.1-0.7,0.2-2,0.3-3.8c0-1.8,0.1-3.8,0-6.1
				c0-2.3-0.1-4.7-0.1-7.2c-0.1-2.5-0.1-4.9-0.2-7.1c-0.1-2.2-0.2-4-0.3-5.6c-0.1-1.5-0.2-2.5-0.2-2.9c-0.1-0.6-0.4-1.2-0.8-1.9
				c-0.4-0.6-0.8-1.3-1.4-2C81.7,40.3,80.9,39.4,79.9,38.5z"/>
			<path class="st3" d="M132.2,44c-0.7-0.2-1.2-0.6-1.6-1.2c-0.4-0.6-0.6-1.2-0.6-1.9c0-0.7,0.2-1.4,0.5-2c0.4-0.7,1-1.2,1.8-1.7
				c1.3-0.7,2.5-0.9,3.4-0.5c1,0.4,1.7,0.9,2.1,1.6c0.2,0.4,0.4,0.9,0.5,1.5c0.1,0.6,0.2,1.3,0.1,2c0,0.7-0.1,1.4-0.2,2.1
				c-0.1,0.7-0.3,1.2-0.6,1.7c-0.2,0.4-0.5,0.7-0.8,1.1c-0.3,0.3-0.6,0.6-1,1c-0.4,0.3-0.8,0.6-1.3,0.9l-2.5-0.2
				c0.3-0.4,0.6-0.7,0.9-1c0.3-0.3,0.5-0.6,0.7-0.8c0.2-0.2,0.4-0.4,0.5-0.6c0.3-0.3,0.5-0.6,0.7-1c0.2-0.3,0.3-0.6,0.5-0.9
				c0.1-0.3,0.2-0.6,0.1-0.9c-0.4,0.4-0.7,0.6-1.1,0.7c-0.4,0.1-0.7,0.2-1,0.2C133,44.2,132.6,44.1,132.2,44z"/>
		</g>
	</g>
</g>
</svg>
